<svg xmlns:xlink="http://www.w3.org/1999/xlink" width="36" height="36" viewBox="0 0 27 58" fill="none" xmlns="http://www.w3.org/2000/svg" color="black" class="sc-EHOje dOAnFC icon"><path fill-rule="evenodd" clip-rule="evenodd" d="M27 0.5H0V57.5H27V0.5ZM3.93895 3.79536L1.65157 1.47887H25.3484L23.0611 3.79536H3.93895ZM0.968363 55.8273V2.17259L3.25395 4.48726V53.5126L0.968363 55.8273ZM23.746 53.5126V4.48726L26.0316 2.17259V55.8273L23.746 53.5126ZM7.1929 7.0907L4.90553 4.77423H22.0945L19.8071 7.0907H7.1929ZM4.22232 52.5322V5.46795L6.10119 7.37073V50.6293L4.22232 52.5322ZM20.8988 50.6293V7.37073L22.7777 5.46795V52.5322L20.8988 50.6293ZM9.22661 9.15032L8.1595 8.0696H18.8405L17.7734 9.15032H9.22661ZM7.06952 49.6486V8.35139L8.54163 9.84225V48.1578L7.06952 49.6486ZM18.4584 48.1578V9.84225L19.9305 8.35139V49.6486L18.4584 48.1578ZM9.51001 47.8708V10.1292H17.49V47.8708H9.51001ZM7.75272 50.3424L9.22661 48.8497H17.7734L19.2473 50.3424H7.75272ZM4.90553 53.2255L6.78617 51.3212H20.2138L22.0945 53.2255H4.90553ZM1.65157 56.5212L3.93895 54.2049H23.0611L25.3484 56.5212H1.65157Z" fill="currentColor"></path></svg>