<svg xmlns:xlink="http://www.w3.org/1999/xlink" width="36" height="36" viewBox="0 0 31 56" fill="none" xmlns="http://www.w3.org/2000/svg" color="black" class="sc-EHOje dOAnFC icon"><path fill-rule="evenodd" clip-rule="evenodd" d="M14.7251 0.5L25.5558 21.82L30.5 41.2556L24.8326 49.38L15.3455 55.5L5.53548 49.3758L0.742266 41.6457H0.624356L0.624361 41.4556L0.5 41.255L4.20496 21.8361L14.7251 0.5ZM1.89053 41.6457L5.13143 46.8724L4.0042 41.6457L1.89053 41.6457ZM5.31658 43.0927L6.49163 48.5409H10.2355L5.31658 43.0927ZM11.1115 49.5106H7.58698L13.4998 53.202L11.1115 49.5106ZM16.3213 53.7135L22.8368 49.5106H19.0408L16.3213 53.7135ZM19.7636 48.5409H23.7545L24.926 43.1092L19.7636 48.5409ZM26.2199 41.7477L24.9904 47.4489L29.0384 41.646H26.304L26.3107 41.6522L26.2199 41.7477ZM26.3056 40.6763H29.3438L25.6999 26.3524C25.7402 27.252 25.7844 28.2424 25.8305 29.2824C25.9987 33.0773 26.1917 37.5378 26.3056 40.6763ZM24.3008 21.5054L15.844 4.85851L19.6657 21.5054H24.3008ZM18.6624 21.5054L14.7076 4.27877L11.3615 21.5054H18.6624ZM10.3653 21.5054L13.5559 5.07956L5.45678 21.5054H10.3653ZM4.45836 25.726L1.60604 40.676L3.94049 40.676C4.05033 37.5404 4.2056 33.0864 4.33616 29.2955C4.3807 28.0022 4.42236 26.7862 4.45836 25.726ZM5.54503 22.4751C5.47668 24.6523 5.22123 32.0304 5.02367 37.6913L10.1824 22.4751H5.54503ZM9.72819 26.8589L5.04378 40.676H8.17049L9.72819 26.8589ZM8.36693 41.6457H5.32308L10.1902 47.0366L8.36693 41.6457ZM12.2736 49.5106H17.8786L15.0761 53.842L12.2736 49.5106ZM11.8142 48.5409H18.3836L18.4406 48.3725L15.2984 42.079L11.8142 48.5409ZM11.3353 47.3718L9.39869 41.6458L14.4228 41.6459L11.3353 47.3718ZM16.1736 41.6459L20.7156 41.6459L18.8814 47.0692L16.1736 41.6459ZM19.9655 46.9143L24.9727 41.646L21.7474 41.6459L19.9655 46.9143ZM21.8885 40.6762L25.2036 40.6763L20.1871 25.585L21.8885 40.6762ZM18.5251 22.4751H11.5154L15.2202 38.0728L18.5251 22.4751ZM14.7464 40.309L14.7003 40.5266L14.8032 40.5481L14.8336 40.6762L9.15479 40.6761L10.9826 24.4633L14.7464 40.309ZM15.8386 40.6762L15.7486 40.297L19.0858 24.5467L20.9042 40.6762L15.8386 40.6762ZM20.1834 22.4751L25.2071 37.5882C25.0518 33.754 24.8459 29.1499 24.7011 25.9111C24.6332 24.3919 24.5787 23.1731 24.5491 22.4751H20.1834Z" fill="currentColor"></path></svg>