<svg xmlns:xlink="http://www.w3.org/1999/xlink" width="36" height="36" viewBox="0 0 51 48" fill="none" xmlns="http://www.w3.org/2000/svg" color="black" class="sc-EHOje dOAnFC icon"><path fill-rule="evenodd" clip-rule="evenodd" d="M7.9596 0.361328H43.8052L50.957 18.8054L34.8481 47.6387H16.9092L0.0429688 18.8008L7.9596 0.361328ZM8.52189 2.04614L1.60259 18.1625H6.24894L11.7201 6.34135L8.52189 2.04614ZM12.5229 7.41947L7.55071 18.1625H12.2195L14.9956 10.7404L12.5229 7.41947ZM15.8063 9.85043H35.4842L37.9792 6.49956H13.3113L15.8063 9.85043ZM38.8602 5.31656H12.4304L9.62158 1.54435H41.6689L38.8602 5.31656ZM38.9093 7.22921L43.4946 18.1625H38.8182L36.3603 10.6525L38.9093 7.22921ZM35.2421 11.0335H16.1472L13.1933 18.931L22.4768 37.0536H28.9241L37.8244 18.9236L35.2421 11.0335ZM38.9333 19.3455L30.0188 37.5043L32.1183 41.2186L43.4129 19.3455H38.9333ZM44.7425 19.3455L32.8132 42.448L34.6144 45.6346L49.3019 19.3455H44.7425ZM49.4408 18.1625H44.7756L39.7288 6.12866L43.0057 1.72785L42.7601 1.54435H42.9969L49.4408 18.1625ZM33.7213 46.4556H17.9937L19.9377 42.7705H31.6383L33.7213 46.4556ZM30.9696 41.5875H20.5619L22.3296 38.2366H29.0756L30.9696 41.5875ZM21.3802 37.5042L19.4267 41.2074L7.61702 19.3455H12.0782L21.3802 37.5042ZM6.27416 19.3455H1.73035L17.0981 45.6212L18.7631 42.465L6.27416 19.3455Z" fill="currentColor"></path></svg>