<svg xmlns:xlink="http://www.w3.org/1999/xlink" width="36" height="36" viewBox="0 0 52 52" fill="none" xmlns="http://www.w3.org/2000/svg" color="black" class="sc-EHOje dOAnFC icon"><path fill-rule="evenodd" clip-rule="evenodd" d="M13.4983 0.564617L13.4785 0.563477L13.4587 0.564631L6.45889 0.972502L6.38122 0.977028L6.31313 1.01467L2.77204 2.97245L2.69058 3.01749L2.64314 3.09756L0.41966 6.84997L0.374024 6.92699L0.371923 7.01649L0.208814 13.964L0.207786 13.9663L0.208713 13.9683L0.207221 14.0319L0.207031 14.04L0.207223 14.048L0.371925 20.9818L0.374092 21.0731L0.421365 21.1511L2.64484 24.822L2.69214 24.9L2.77204 24.9442L6.31313 26.902L6.38314 26.9407L6.46305 26.9444L13.5452 27.2707L13.5608 27.2714L13.5764 27.2707L20.8233 26.9444L20.9103 26.9405L20.9849 26.8954L24.3613 24.8561L24.4335 24.8125L24.4771 24.7404L26.7006 21.0695L26.7478 20.9916L26.7501 20.9005L26.9148 14.1298L26.915 14.1217L26.9148 14.1135L26.7501 7.01658L26.7479 6.92409L26.6995 6.84526L24.3936 3.09284L24.3465 3.01606L24.2676 2.97245L20.7265 1.01467L20.6583 0.976969L20.5805 0.972488L13.4983 0.564617ZM0.927213 15.5208L1.05438 20.8744L2.70954 23.607L3.09155 20.2014L3.09192 20.1981L2.91213 19.8096L0.927213 15.5208ZM3.63883 19.8881L6.90714 19.7503L6.15409 14.7321L3.67344 19.8172L3.63883 19.8881ZM6.1784 13.2327L6.98593 8.16651L3.70199 8.03097L6.1784 13.2327ZM3.07953 7.60814L2.71135 4.32581L1.05445 7.12206L0.931374 12.3643L2.9138 7.97507L3.07953 7.60814ZM11.9715 1.33726L6.57639 1.65163L3.98898 3.08215L7.43499 3.59417L7.45068 3.5965L7.6858 3.479L11.9715 1.33726ZM7.72707 4.2474V7.44375L13.0214 6.66417L7.72707 4.2474ZM14.0394 6.68044L19.1392 7.44167L19.0723 4.32412L14.0394 6.68044ZM19.5682 3.63464L23.0617 3.08824L20.4633 1.65169L14.9668 1.33514L19.2627 3.48198L19.5682 3.63464ZM19.7567 4.2983L23.71 3.67998L23.2852 7.34663L19.8251 7.48427L19.7567 4.2983ZM20.6314 13.1376L19.8856 8.16722L23.2483 8.03345L20.6314 13.1376ZM20.6083 14.7208L19.808 19.7417L23.3153 19.8098L23.2972 19.7758L20.6083 14.7208ZM23.9367 20.0321L23.9473 20.1135L24.3971 23.5507L26.0677 20.7927L26.2022 15.2619L24.0666 19.7586L23.9367 20.0321ZM26.1948 12.605L26.0676 7.12496L24.3282 4.29435L23.9368 7.67255L24.0637 7.94977L26.1948 12.605ZM23.3065 20.4946L23.7866 24.1631L19.7503 23.6116V20.4255L23.3065 20.4946ZM20.0496 13.8752L19.1097 19.7723L13.5594 20.5466L7.60261 19.7702L6.74293 14.0415L7.68323 8.1424L13.4783 7.2891L19.1892 8.14153L20.0496 13.8752ZM6.57447 26.264L3.98764 24.8338L7.35295 24.3306L7.64472 24.287V24.2432L7.7839 24.3075L12.6188 26.5425L6.57447 26.264ZM14.4858 26.5442L20.7054 26.2642L23.1776 24.771L19.4296 24.2589L19.3245 24.3075L14.4858 26.5442ZM19.0655 23.4226L14.3545 21.1272L19.0655 20.4699V23.4226ZM12.7457 21.1312L7.77604 23.5526L7.64472 23.6166V20.4663L12.7457 21.1312ZM3.73938 20.5693L6.95991 20.4335V23.6969L3.32764 24.24L3.73938 20.5693ZM3.73936 7.34711L3.32759 3.67621L7.04226 4.22815V7.48344L3.73936 7.34711ZM13.4713 1.35032L8.48326 3.84303L13.5507 6.15624L18.4749 3.85082L13.4713 1.35032ZM13.5542 21.4959L8.57508 23.922L13.5542 26.2236L18.5333 23.922L13.5542 21.4959ZM23.6641 8.72917L26.0589 13.9607L23.6644 19.0026L20.9822 13.9602L23.6641 8.72917ZM5.76439 13.9627L3.30106 8.78852L0.963998 13.9629L3.30099 19.0124L5.76439 13.9627Z" fill="currentColor"></path><path fill-rule="evenodd" clip-rule="evenodd" d="M32.3939 25.9925L30.7956 30.2398H34.9161C35.6512 29.3847 36.3974 28.478 37.1811 27.4867C35.6546 27.3813 34.1467 26.8606 32.3939 25.9925ZM37.5758 28.064C36.9641 28.8345 36.3744 29.5546 35.7941 30.2398H37.5758V28.064ZM38.2435 30.2398H40.0213C39.4429 29.5547 38.8546 28.8347 38.2435 28.0643V30.2398ZM38.6189 27.4625C39.4092 28.4633 40.1596 29.3778 40.8981 30.2398H44.7435L43.0789 26.0336C41.4153 26.8503 39.9896 27.3227 38.6189 27.4625ZM43.8062 26.0567L45.4335 30.1685L47.9283 28.4001C46.9935 27.3984 45.6818 26.581 43.8062 26.0567ZM48.3619 28.9116L46.0251 30.5681L49.9219 32.3511C49.6087 31.0815 49.1321 29.9127 48.3619 28.9116ZM49.9602 33.1033L45.5095 31.0669L45.0537 34.7007C45.9877 35.6267 46.9773 36.5667 48.0685 37.5765L49.9602 33.1033ZM47.3379 37.8099C46.5179 37.0479 45.754 36.3231 45.0261 35.611V37.8099H47.3379ZM45.0261 38.4781V40.5946C45.7423 39.9062 46.4969 39.2077 47.3118 38.4781H45.0261ZM48.072 38.6951C46.9708 39.6733 45.9816 40.5914 45.0523 41.4992L45.2671 44.709L50.0023 43.0016L48.072 38.6951ZM49.9765 43.7212L45.7373 45.2496L48.3643 47.1083C48.4586 46.9753 48.5485 46.8415 48.6342 46.7074C49.3669 45.56 49.7762 44.4109 49.9765 43.7212ZM47.9579 47.6392L45.1649 45.6629L43.8084 50.1688C45.6609 49.8111 46.9995 48.7997 47.9579 47.6392ZM43.1303 50.105L44.5143 45.5076H41.254C40.3947 46.4832 39.5207 47.5194 38.5809 48.6651C39.9855 48.8009 41.4411 49.2784 43.1303 50.105ZM38.2435 48.0237C38.9814 47.1272 39.6807 46.2965 40.3665 45.5076H38.2435V48.0237ZM37.5758 45.5076H35.4478C36.136 46.2965 36.8372 47.1274 37.5758 48.024V45.5076ZM37.2184 48.6409C36.2856 47.5049 35.4154 46.4764 34.5589 45.5076H30.783L32.3876 50.1188C34.1468 49.2488 35.673 48.7364 37.2184 48.6409ZM31.6959 50.1629L30.166 45.7664L27.456 47.7306C28.3814 48.8358 29.7293 49.7938 31.6959 50.1629ZM27.0499 47.1998L29.699 45.2799L25.5778 43.6579C25.7281 44.4321 26.0769 45.6702 26.8307 46.8692C26.9002 46.9799 26.9733 47.0902 27.0499 47.1998ZM25.6174 42.9555L30.109 44.7233L30.7202 41.4752C29.7916 40.572 28.8041 39.6581 27.7073 38.6847L25.6174 42.9555ZM28.4796 38.4781C29.304 39.2157 30.0679 39.9215 30.7933 40.6172V38.4781H28.4796ZM30.7933 37.8099V35.588C30.056 36.3075 29.2828 37.0398 28.4534 37.8099H30.7933ZM27.7042 37.5936C28.8218 36.5601 29.8348 35.5999 30.7914 34.6533L30.0683 31.0505L25.5221 33.098L27.7042 37.5936ZM25.5693 32.344L29.6248 30.5175L27.165 28.8833C26.4039 29.8923 25.9237 31.0689 25.5693 32.344ZM27.5939 28.3663L30.1485 30.0634L31.6744 26.0086C29.8033 26.5326 28.5152 27.3566 27.5939 28.3663ZM33.3284 25.6988C34.9001 26.421 36.2339 26.8045 37.5758 26.8363V25.3998C35.9677 25.4215 34.4679 25.5518 33.3284 25.6988ZM38.2435 25.3973V26.8231C39.4487 26.7474 40.7139 26.3885 42.2099 25.7062C40.9281 25.4921 39.5618 25.4052 38.2435 25.3973ZM30.8206 31.4055L32.5907 32.8167C32.1866 33.2433 31.7773 33.6649 31.3587 34.0868L30.8206 31.4055ZM31.4609 34.9299V41.1492L31.4425 41.2472C32.637 42.4202 33.74 43.5827 34.859 44.8394H40.9531C42.0709 43.5792 43.1714 42.4137 44.3656 41.2372L44.3584 41.1292V34.9511C43.0433 33.6378 41.8309 32.3424 40.5919 30.9079H35.2216C33.9847 32.3348 32.7725 33.624 31.4609 34.9299ZM34.3347 30.9079H31.268L33.0494 32.328C33.48 31.865 33.9066 31.3938 34.3347 30.9079ZM41.4774 30.9079C41.8552 31.3385 42.2317 31.7575 42.6109 32.1695L44.3905 30.9079H41.4774ZM44.7892 31.4442L43.0695 32.6632C43.5237 33.1475 43.9836 33.6245 44.4558 34.1021L44.7892 31.4442ZM44.4247 42.1199C43.9928 42.5523 43.5719 42.985 43.1562 43.4234L44.5792 44.4302L44.4247 42.1199ZM44.001 44.8394L42.6945 43.915C42.4117 44.219 42.1304 44.5265 41.8488 44.8394H44.001ZM33.9618 44.8394C33.6264 44.4684 33.2915 44.1049 32.9539 43.7459L31.4451 44.8394H33.9618ZM30.8393 44.4535L32.4899 43.2572C32.0979 42.8483 31.7006 42.4437 31.2935 42.039L30.8393 44.4535ZM25.2126 33.9896L27.0669 37.8099H25.0533C25.0157 36.5035 25.0459 35.158 25.2126 33.9896ZM25.0783 38.4781C25.0834 38.5897 25.0889 38.7008 25.0948 38.8111C25.1599 40.0275 25.2698 41.1419 25.3602 41.9619L27.065 38.4781H25.0783ZM33.3793 50.3877C35.3599 50.6287 36.5165 50.7505 37.5758 50.7665V49.2946C36.2441 49.3234 34.9186 49.6903 33.3793 50.3877ZM38.2435 49.3084V50.7624C39.2686 50.7346 40.3487 50.6081 42.1596 50.3875C40.6965 49.7322 39.4427 49.3837 38.2435 49.3084ZM50.2509 41.9235L48.7066 38.4781H50.4053C50.4024 38.6741 50.3984 38.8682 50.3935 39.0596C50.3653 40.1748 50.3076 41.1837 50.2509 41.9235ZM50.4111 37.8099C50.414 36.5547 50.3696 35.2651 50.2425 34.1501L48.6947 37.8099H50.4111ZM32.1556 25.198C34.3267 24.8234 39.3869 24.3394 43.3301 25.2465C45.8115 25.8173 47.4956 26.8531 48.6444 28.1998C49.7896 29.5421 50.3786 31.1652 50.7214 32.8686C51.0661 34.5813 51.1134 37.011 51.061 39.0766C51.0088 41.1372 50.8554 42.8928 50.7816 43.2597C50.7098 43.6167 50.2997 45.3401 49.1968 47.0672C48.0908 48.799 46.2682 50.5619 43.3759 50.9125C43.0825 50.948 42.805 50.9819 42.5417 51.014C40.338 51.283 39.1302 51.4304 37.8921 51.4363C36.5046 51.4428 35.0803 51.2719 32.1714 50.9124C29.1377 50.5375 27.3264 48.9125 26.2655 47.225C25.2121 45.5495 24.8972 43.8137 24.8266 43.1703C24.8162 43.0753 24.8018 42.9528 24.7847 42.8061C24.6923 42.0162 24.5179 40.5253 24.4281 38.8469C24.3219 36.864 24.3309 34.5796 24.7471 32.856C25.156 31.163 25.7442 29.532 26.8702 28.1803C28.0019 26.8217 29.6533 25.773 32.1375 25.2016L32.1465 25.1995L32.1556 25.198Z" fill="currentColor"></path></svg>