<svg xmlns:xlink="http://www.w3.org/1999/xlink" width="36" height="36" viewBox="0 0 57 48" fill="none" xmlns="http://www.w3.org/2000/svg" color="black" class="sc-EHOje dOAnFC icon"><path fill-rule="evenodd" clip-rule="evenodd" d="M14.8502 1.80066L18.1348 7.43126L8.8198 23.4001L2.25075 23.4L14.8502 1.80066ZM2.25076 24.6L8.8198 24.6001L18.1348 40.5688L14.8502 46.1993L2.25076 24.6ZM15.9006 46.8H41.0994L37.8147 41.1688H19.1855L15.9006 46.8ZM19.8856 39.9688H37.1147L34.3048 35.1518H22.6955L19.8856 39.9688ZM22.6955 33.9518H34.3048L40.1099 24.0001L34.3048 14.0484H22.6955L16.8905 24.0001L22.6955 33.9518ZM15.8397 23.4001L21.6448 13.4484L18.8351 8.63194L10.2205 23.4001H15.8397ZM10.2205 24.6001L18.8351 39.3682L21.6448 34.5518L15.8397 24.6001H10.2205ZM19.8855 8.03126L22.6955 12.8484H34.3048L37.1147 8.03126H19.8855ZM38.1651 8.632L46.7797 23.4001H41.1607L35.3556 13.4484L38.1651 8.632ZM41.1607 24.6001L35.3556 34.5518L38.1651 39.3681L46.7797 24.6001H41.1607ZM48.1804 24.6001L38.8654 40.5688L42.1498 46.1993L54.7492 24.6L48.1804 24.6001ZM54.7492 23.4L48.1805 23.4001L38.8654 7.43132L42.1498 1.80068L54.7492 23.4ZM41.0994 1.2L37.8147 6.83126H19.1855L15.9006 1.2H41.0994ZM42.5001 0L56.5 24L42.5001 48H14.4998L0.5 24L14.4998 1.78814e-07L42.5001 0Z" fill="currentColor"></path></svg>