<svg xmlns:xlink="http://www.w3.org/1999/xlink" width="36" height="36" viewBox="0 0 33 60" fill="none" xmlns="http://www.w3.org/2000/svg" color="black" class="sc-EHOje dOAnFC icon"><path fill-rule="evenodd" clip-rule="evenodd" d="M9.91999 17.4955H1.14648V16.4082H9.91999V17.4955Z" fill="currentColor"></path><path fill-rule="evenodd" clip-rule="evenodd" d="M31.8541 17.4955H23.6289V16.4082H31.8541V17.4955Z" fill="currentColor"></path><path fill-rule="evenodd" clip-rule="evenodd" d="M23.075 16.5176L16.4996 9.99857L9.92412 16.5176L16.4996 38.4066L23.075 16.5176ZM24.3126 16.2069L16.4996 8.46094L8.68652 16.2069L16.4996 42.2159L24.3126 16.2069Z" fill="currentColor"></path><path fill-rule="evenodd" clip-rule="evenodd" d="M27.5045 16.3615L16.4993 5.45073L5.49414 16.3615L16.4993 47.5507L27.5045 16.3615ZM28.7672 16.0757L16.4993 3.91309L4.23145 16.0757L16.4993 50.8434L28.7672 16.0757Z" fill="currentColor"></path><path fill-rule="evenodd" clip-rule="evenodd" d="M31.5361 16.5448L16.4996 1.63726L1.46312 16.5448L16.4996 56.7714L31.5361 16.5448ZM32.8088 16.2689L16.4996 0.0996094L0.19043 16.2689L16.4996 59.9L32.8088 16.2689Z" fill="currentColor"></path><path fill-rule="evenodd" clip-rule="evenodd" d="M15.9512 9.33984V0.641602H17.0479V9.33984H15.9512Z" fill="currentColor"></path><path fill-rule="evenodd" clip-rule="evenodd" d="M15.9512 57.724V39.2402H17.0479V57.724H15.9512Z" fill="currentColor"></path></svg>