<svg xmlns:xlink="http://www.w3.org/1999/xlink" width="36" height="36" viewBox="0 0 35 54" fill="none" xmlns="http://www.w3.org/2000/svg" color="black" class="sc-EHOje dOAnFC icon"><path fill-rule="evenodd" clip-rule="evenodd" d="M17.5 0L35 27.0002L17.5 54L0 27L17.5 0ZM1.43287 27.4753L17.031 51.541V47.6562L3.95083 27.4754L1.43287 27.4753ZM5.07563 27.4754L17.031 45.9209V41.104L8.19768 27.4755L5.07563 27.4754ZM9.0144 27.0002L17.5 40.0923L25.9858 27.0002L17.5 13.908L9.0144 27.0002ZM17.9706 12.8986L26.8024 26.5249H29.9243L17.9706 8.08203V12.8986ZM17.0296 8.08203L5.07592 26.5247L8.19773 26.5249L17.0296 12.8986V8.08203ZM17.0296 6.34667L3.95114 26.5247L1.43284 26.5247L17.0296 2.46126V6.34667ZM17.9706 6.34667L31.049 26.5249H33.5671L17.9706 2.46127V6.34667ZM33.5671 27.4755H31.0492L17.972 47.6517V51.5366L33.5671 27.4755ZM17.972 45.9163L29.9245 27.4755H26.8024L17.972 41.0995V45.9163Z" fill="currentColor"></path></svg>