<svg xmlns:xlink="http://www.w3.org/1999/xlink" width="36" height="36" viewBox="0 0 51 50" fill="none" xmlns="http://www.w3.org/2000/svg" color="black" class="sc-EHOje dOAnFC icon"><path fill-rule="evenodd" clip-rule="evenodd" d="M35.7877 0L50.4522 14.5968L50.5 35.2877L35.9032 49.9522L15.2123 50L0.547837 35.4032L0.5 14.7123L15.0968 0.0478364L35.7877 0ZM15.1254 1.791L15.9093 3.64127L4.11104 15.4943L2.26423 14.7117L15.1254 1.791ZM1.75261 15.8525L1.79535 34.3396L3.65444 33.5519L3.61535 16.6418L1.75261 15.8525ZM4.86654 17.172L4.90319 33.0228L6.98313 32.1414L6.95056 18.0551L4.86654 17.172ZM8.20178 18.5852L8.23191 31.6122L10.5599 30.6258L10.5344 19.5736L8.20178 18.5852ZM10.9708 18.401L8.65813 17.421L17.8397 8.19691L18.8215 10.5139L10.9708 18.401ZM11.7838 19.356L11.8101 30.7081L19.8025 38.6636L19.9274 38.7165L31.2079 38.6904L39.2165 30.6447L39.1902 19.2926L31.1445 11.284L19.7924 11.3103L11.7838 19.356ZM19.9867 10.0599L30.8947 10.0347L31.8831 7.70191L19.0002 7.73172L19.9867 10.0599ZM18.471 6.483L32.4133 6.45076L33.2964 4.36668L17.5897 4.40299L18.471 6.483ZM16.436 4.88406L5.35151 16.0199L7.41768 16.8954L17.3131 6.95409L16.436 4.88406ZM17.0606 3.15424L33.8265 3.11548L34.6159 1.25268L16.2728 1.29509L17.0606 3.15424ZM35.766 1.74209L34.9835 3.58882L46.7511 15.3021L48.6013 14.5181L35.766 1.74209ZM49.2046 15.6201L47.3456 16.4077L47.3843 33.1393L49.2469 33.9285L49.2046 15.6201ZM48.889 35.1344L47.0424 34.352L35.2769 46.172L36.0608 48.022L48.889 35.1344ZM34.9924 48.7043L34.2047 46.8455L17.3291 46.8844L16.5399 48.747L34.9924 48.7043ZM15.3434 48.3669L16.1259 46.5202L4.22036 34.6696L2.37026 35.4536L15.3434 48.3669ZM5.46315 34.143L16.6515 45.2797L17.5269 43.2137L7.53306 33.266L5.46315 34.143ZM8.77582 32.7394L18.0526 41.9733L19.0324 39.6607L11.0927 31.7576L8.77582 32.7394ZM20.2608 39.9656L19.2724 42.2982L32.2652 42.2681L31.2788 39.9402L20.2608 39.9656ZM32.3649 39.2997L33.3467 41.6166L42.4956 32.4253L40.1831 31.4454L32.3649 39.2997ZM40.4654 30.2076L42.798 31.196L42.7683 18.3472L40.4403 19.3337L40.4654 30.2076ZM39.8786 18.2142L42.1956 17.2324L33.0569 8.13582L32.0769 10.4484L39.8786 18.2142ZM33.5824 6.89537L43.4383 16.7058L45.5083 15.8287L34.4579 4.82928L33.5824 6.89537ZM46.0969 16.9368L44.017 17.8181L44.0492 31.7261L46.1331 32.6091L46.0969 16.9368ZM45.802 33.8263L43.736 32.951L33.8733 42.8594L34.7503 44.9292L45.802 33.8263ZM33.6756 45.5967L32.7943 43.5169L18.7422 43.5494L17.8592 45.6332L33.6756 45.5967Z" fill="currentColor"></path></svg>