<svg xmlns:xlink="http://www.w3.org/1999/xlink" width="36" height="36" viewBox="0 0 49 48" fill="none" xmlns="http://www.w3.org/2000/svg" color="black" class="sc-EHOje dOAnFC icon"><path fill-rule="evenodd" clip-rule="evenodd" d="M25.1557 0L38.9908 1.96383L44.5804 4.06972L45.1059 4.01688L45.0646 4.43511L47.2276 10.466L48.9277 24.1191L46.5613 37.9255L44.4047 43.8297L38.7104 45.8017L24.7041 47.95L24.6274 48L24.5556 47.9516L11.2356 45.8024L4.93733 43.8333L2.95944 37.1782L0.927734 23.4607L3.21177 9.73242L5.28157 3.94387L11.618 1.60032L25.1557 0ZM27.1677 46.3447L37.6562 44.736L35.8569 40.6827L27.1677 46.3447ZM37.2011 40.7396L38.8563 44.4681L42.1588 43.3243C41.8614 43.1727 41.5189 42.9963 41.1385 42.7993C40.0778 42.2498 38.7157 41.5357 37.2011 40.7396ZM43.9991 41.4277L45.241 38.0278L41.5937 36.4815C42.3616 38.0433 43.0478 39.4478 43.5719 40.5356C43.7294 40.8625 43.8726 41.1614 43.9991 41.4277ZM41.3924 35.0797L45.5268 36.8326L47.3231 26.3528L41.3924 35.0797ZM47.464 22.1086L46.1363 11.4466L41.5901 13.3135L47.464 22.1086ZM41.481 12.048L45.8686 10.2463L44.4124 6.18596C44.2578 6.5031 44.0757 6.87291 43.8706 7.28646C43.2484 8.54102 42.4106 10.2071 41.481 12.048ZM42.8919 4.72908L39.2424 3.3541L37.4681 7.41024C39.1886 6.54994 40.7402 5.77905 41.9178 5.20257C42.2791 5.02575 42.6058 4.86686 42.8919 4.72908ZM36.1058 7.51648L38.0567 3.0567L27.584 1.57013L36.1058 7.51648ZM22.8521 1.4941L12.5657 2.71009L14.3449 7.16396L22.8521 1.4941ZM11.2737 3.0203L7.67995 4.34942C8.01115 4.51126 8.40339 4.7053 8.84583 4.92581C9.92334 5.46291 11.3045 6.16017 12.8389 6.93862L11.2737 3.0203ZM13.5199 8.64332C11.5003 7.61659 9.6648 6.68779 8.31213 6.01355C7.6398 5.67844 7.08919 5.4074 6.69533 5.21877C6.8646 5.58074 7.08534 6.0438 7.34797 6.58877C7.98641 7.91383 8.86756 9.71336 9.84581 11.6984C9.90589 11.8202 9.96632 11.9428 10.0271 12.066L16.0327 14.9335L13.5199 8.64332ZM16.4386 16.47L10.8949 13.8231C12.2603 16.5838 13.7063 19.4913 14.8905 21.8657L16.4386 16.47ZM14.4143 23.6118C13.0166 20.8129 11.0809 16.9233 9.34582 13.4102L2.45053 23.4828L9.06663 34.1999C9.55121 33.2417 10.0511 32.2541 10.5509 31.2669C11.9533 28.4963 13.3549 25.7277 14.4143 23.6118ZM7.97503 34.7285L2.50045 25.8606L4.0422 36.2701L7.97503 34.7285ZM4.30292 37.47L5.46602 41.3834C5.61132 41.0858 5.77926 40.7451 5.9663 40.368C6.54964 39.1918 7.32257 37.6537 8.18295 35.949L4.30292 37.47ZM9.87109 35.2815C9.80181 35.4185 9.73294 35.5548 9.66456 35.6902C8.64129 37.7156 7.71535 39.5553 7.0432 40.9105C6.8162 41.3683 6.6187 41.7696 6.45648 42.1035C6.74788 41.9605 7.08239 41.7948 7.45416 41.6095C8.80797 40.9347 10.6454 40.005 12.667 38.9772C12.9914 38.8123 13.3206 38.6448 13.6533 38.4755L16.0244 32.7727L9.87109 35.2815ZM17.5102 32.3386L22.865 33.7778C21.6447 34.3994 20.2782 35.0967 18.8602 35.8204C17.6939 36.4156 16.4928 37.0286 15.3095 37.6318L17.5102 32.3386ZM12.9366 40.1992C11.0221 41.1722 9.2849 42.0507 7.98786 42.6973C7.61115 42.885 7.27086 43.0536 6.97367 43.1994L11.1468 44.5041L12.9366 40.1992ZM12.3486 44.7531L22.16 46.3362L13.983 40.8221L12.3486 44.7531ZM14.4571 39.6818L14.5922 39.3569C16.1754 38.5507 17.8234 37.7097 19.4063 36.9018C21.346 35.9119 23.1884 34.9717 24.6951 34.2061C27.5562 35.6653 31.5887 37.787 35.1818 39.6775L24.6387 46.5476L14.4571 39.6818ZM36.4084 38.954C36.4661 38.9843 36.5237 39.0146 36.5811 39.0448C38.5647 40.0884 40.3636 41.0335 41.6888 41.7201C42.2854 42.0291 42.7838 42.2846 43.1588 42.4726C42.9874 42.1054 42.7605 41.6294 42.489 41.0657C41.8505 39.7406 40.9693 37.9411 39.9911 35.9561C39.9565 35.8859 39.9218 35.8156 39.887 35.745L33.6831 32.815L36.4084 38.954ZM33.3295 31.3079L39.024 33.9973C37.6266 31.1711 36.137 28.1758 34.9251 25.7462L33.3295 31.3079ZM32.1294 31.1224L34.1555 24.0604L34.1596 24.0616L32.3723 16.7534L25.6195 14.7909L17.7756 16.5897L15.7273 23.7292L17.8644 31.1779L24.4805 32.9562C24.5146 32.9388 24.5487 32.9216 24.5824 32.9044L24.6169 32.9734L24.8015 32.9278L24.8123 32.9063C24.8206 32.9106 24.829 32.9148 24.8374 32.919L32.1294 31.1224ZM26.4847 33.7624C28.9057 35.0098 31.8826 36.5731 34.6875 38.0486L32.1636 32.3632L26.4847 33.7624ZM17.6268 15.3794L23.9073 13.9391C22.6409 13.2943 21.2078 12.5629 19.7179 11.8026C18.2645 11.0608 16.7571 10.2915 15.2973 9.54784L17.6268 15.3794ZM15.1236 8.09986C16.8056 8.95609 18.5718 9.85746 20.2638 10.721C22.2039 11.7111 24.0466 12.6515 25.5535 13.4173C28.2456 12.0514 31.9553 10.1757 35.3555 8.46876L25.2011 1.38334L15.1236 8.09986ZM27.1417 13.9704C29.4545 12.7983 32.3006 11.36 35.0232 9.99155L32.5901 15.5538L27.1417 13.9704ZM33.5824 16.6312L34.962 22.2722C35.9221 20.363 37.0692 18.0969 38.2159 15.8317C38.4561 15.3571 38.6963 14.8827 38.9347 14.4115L33.5824 16.6312ZM39.7747 12.751C39.9086 12.4862 40.0413 12.2237 40.1723 11.9642C41.1956 9.93889 42.1215 8.09925 42.7937 6.74392C42.9409 6.44704 43.0758 6.17394 43.1966 5.9275C42.9679 6.03818 42.7162 6.16078 42.4438 6.29414C41.1292 6.93771 39.3438 7.82579 37.3745 8.81187C37.1548 8.92181 36.9329 9.03297 36.7092 9.14515L34.103 15.1031L39.7747 12.751ZM40.5387 13.9123C40.1272 14.7258 39.7066 15.5567 39.2861 16.3874C37.8836 19.158 36.4821 21.9267 35.4226 24.0426C36.8214 26.8438 38.7591 30.7373 40.4952 34.2526L47.3685 24.1387L40.5387 13.9123ZM14.9217 25.2894C13.9523 27.2176 12.7866 29.5203 11.6212 31.8224C11.3147 32.4281 11.0081 33.0337 10.7051 33.6325L16.6231 31.2196L14.9217 25.2894ZM2.51625 21.2501L4.24305 10.8711L8.39382 12.6641L2.51625 21.2501ZM8.3093 11.3074C7.51465 9.6917 6.80416 8.23783 6.26499 7.11888C6.08512 6.74562 5.92395 6.40881 5.78487 6.11527L4.51447 9.66816L8.3093 11.3074Z" fill="currentColor"></path></svg>