<svg xmlns:xlink="http://www.w3.org/1999/xlink" width="36" height="36" viewBox="0 0 51 52" fill="none" xmlns="http://www.w3.org/2000/svg" color="black" class="sc-EHOje dOAnFC icon"><path fill-rule="evenodd" clip-rule="evenodd" d="M25.5 0.5L51 19.9959L41.2725 51.5H9.72752L0 19.9959L25.5 0.5ZM1.71719 21.2527L10.4425 49.511L12.9575 45.8213L5.80084 22.6433L1.71719 21.2527ZM7.28612 23.1492L13.8723 44.4793L16.7683 40.2306L11.9886 24.7506L7.28612 23.1492ZM13.237 24.4893L17.9337 39.7002H33.0663L37.763 24.4893L25.5 15.1137L13.237 24.4893ZM26.1349 13.9999L38.6162 23.5423L43.3614 21.9199L26.1349 8.74951V13.9999ZM24.8651 8.74951L7.63238 21.9246L12.3834 23.5426L24.8651 13.9999V8.74951ZM24.8651 7.1502L6.18514 21.4318L2.0539 20.0249L24.8651 2.58474V7.1502ZM26.1349 7.1502L44.8068 21.4257L48.933 20.0149L26.1349 2.58474V7.1502ZM49.2878 21.2366L45.2022 22.6335L38.0584 45.7699L40.5834 49.427L49.2878 21.2366ZM39.5936 50.2291L37.0277 46.5127H14.0235L11.4902 50.2291H39.5936ZM14.8898 45.2417H36.1502L33.2016 40.9711H17.8008L14.8898 45.2417ZM34.2323 40.2283L37.14 44.4397L43.7162 23.1416L39.0115 24.7502L34.2323 40.2283Z" fill="currentColor"></path></svg>