<svg xmlns:xlink="http://www.w3.org/1999/xlink" width="36" height="36" viewBox="0 0 53 54" fill="none" xmlns="http://www.w3.org/2000/svg" color="black" class="sc-EHOje dOAnFC icon"><path fill-rule="evenodd" clip-rule="evenodd" d="M26.9135 0.5L39.6008 4.36615L49.3804 13.932L52.6426 27.3699L49.381 39.8854L39.6029 50.5532L26.9107 53.5L14.0439 50.5548L4.08946 39.892L0.642578 27.3614L4.44589 13.9322L13.5039 4.5511L13.5551 4.35153L13.6715 4.37745L13.6824 4.36617L26.9135 0.5ZM12.8434 7.12238L6.19735 14.0056L10.4137 16.4782L10.4455 16.4596L12.8434 7.12238ZM9.79989 17.6456L5.46588 15.1039L2.65163 25.041L9.79989 17.6456ZM2.58529 29.5201L5.16644 38.9034L9.55331 36.3308L2.58529 29.5201ZM10.2697 37.4379L5.95411 39.9688L13.3809 47.9242L10.2697 37.4379ZM16.4678 49.7527L26.2603 51.9943V47.0529L16.4678 49.7527ZM27.5591 47.0562V51.9917L37.2012 49.753L27.5591 47.0562ZM40.3013 47.852L47.6453 39.8399L43.4973 37.4073L40.3013 47.852ZM44.2434 36.3175L48.3408 38.7204L50.8355 29.1474L44.2434 36.1223V36.3175ZM44.2434 34.214L50.7376 27.3427L44.2434 19.7843V34.214ZM44.2434 17.7749L50.8388 25.4511L48.3303 15.1175L44.2434 17.5143V17.7749ZM43.5822 16.3747L47.5957 14.021L40.3697 6.9531L43.4328 16.2871L43.5822 16.3747ZM41.7369 15.2925L38.6592 5.91417L29.4455 8.08437L41.7369 15.2925ZM27.7925 7.11492L36.983 4.95021L27.5591 2.07851V6.97805L27.7925 7.11492ZM26.2603 7.1801L16.3308 4.9695L26.2603 2.06809V7.1801ZM24.5915 8.16366L12.0261 15.5326L14.4959 5.91608L24.5915 8.16366ZM26.2603 8.71242L11.7159 17.2419L26.2603 25.7714V8.71242ZM27.5591 8.52868L27.5874 8.52203L42.2799 17.1384L27.5591 25.7714V8.52868ZM26.2603 28.0604L11.8688 36.5002L26.2603 44.9401V28.0604ZM25.3486 45.9328L11.7875 37.98L14.994 48.7875L25.3486 45.9328ZM11.2278 35.3487L25.6074 26.9159L11.2278 18.483V35.3487ZM9.92895 19.3984V34.8638L2.24236 27.3507L9.92895 19.3984ZM28.7034 46.0034L38.6548 48.7868L41.869 38.2825L28.7034 46.0034ZM42.9446 35.5558L28.2119 26.9159L42.9446 18.276V35.5558ZM42.1271 36.6037L27.5591 28.0605V45.1471L42.1271 36.6037Z" fill="currentColor"></path></svg>