<svg xmlns:xlink="http://www.w3.org/1999/xlink" width="36" height="36" viewBox="0 0 47 48" fill="none" xmlns="http://www.w3.org/2000/svg" color="black" class="sc-EHOje dOAnFC icon"><path fill-rule="evenodd" clip-rule="evenodd" d="M8.2578 0.964844H38.4885L46.1308 8.3698L46.3909 38.9321L38.5176 47.0354L8.20754 46.9142L0.320312 39.2644V9.11886L8.2578 0.964844ZM9.70034 2.19187L11.3342 4.64593H35.384L37.0179 2.19187H9.70034ZM38.2926 2.4745L44.5964 8.58261L41.8019 10.4183L36.4776 5.20064L38.2926 2.4745ZM34.5671 5.87296H12.1511L13.785 8.32704H32.9332L34.5671 5.87296ZM34.0401 8.86181L35.7892 6.23475L40.758 11.104L38.1059 12.8461L34.0401 8.86181ZM32.1163 9.55405H14.6019L16.2357 12.0081H30.4825L32.1163 9.55405ZM31.6026 12.523L33.3517 9.89592L37.0619 13.5319L34.4099 15.274L31.6026 12.523ZM30.5856 13.2351H16.2054L12.7595 16.8152V31.2975L12.7761 31.3232L16.1664 34.6488L30.5855 34.7071L33.9951 31.1581L33.8714 16.4551L30.5856 13.2351ZM35.0837 16.2946L35.2129 31.6516L35.2087 31.6559L37.6332 33.2485L37.4773 14.7223L35.0837 16.2946ZM38.6842 13.9295L38.8535 34.0502L41.2737 35.64L41.0778 12.3572L38.6842 13.9295ZM42.2848 11.5644L42.4941 36.4416L45.171 38.2L44.9295 9.82705L42.2848 11.5644ZM44.4435 39.1854L41.6509 37.3509L36.5044 42.7081L38.3409 45.4664L44.4435 39.1854ZM37.1018 45.8027L35.4332 43.2964L11.3498 43.199L9.68936 45.693L37.1018 45.8027ZM8.41291 45.413L1.57455 38.7806L4.42388 36.9089L10.262 42.6356L8.41291 45.413ZM12.1646 41.9753L34.6141 42.066L32.9823 39.6152L13.7875 39.5375L12.1646 41.9753ZM12.6924 38.9852L10.9506 41.6014L5.47803 36.2334V36.2164L8.10837 34.4886L12.6924 38.9852ZM14.6022 38.3138L32.1632 38.3848L30.5315 35.934L16.2252 35.8761L14.6022 38.3138ZM15.1228 35.3347L13.3809 37.9509L9.15222 33.8029L11.7929 32.0684L15.1228 35.3347ZM11.5459 30.7673V17.1012L9.11879 15.5068V32.3617L11.5459 30.7673ZM7.90519 33.1588V14.7096L5.47803 13.1152V34.7532L7.90519 33.1588ZM4.26445 35.5504V12.318L1.53389 10.5244V37.344L4.26445 35.5504ZM1.86655 9.27969L8.45218 2.51442L10.2813 5.26182L4.65258 11.1098L1.86655 9.27969ZM5.69004 11.7912L10.9737 6.30182L12.7152 8.91757L8.29938 13.5053L5.69004 11.7912ZM9.33686 14.1868L13.4076 9.95752L15.1491 12.5733L11.9462 15.9009L9.33686 14.1868ZM31.6278 35.3833L33.3736 38.0055L36.9616 34.2707L34.3468 32.553L31.6278 35.3833ZM37.9989 34.952L34.0661 39.0457L35.8119 41.6679L40.6137 36.6696L37.9989 34.952Z" fill="currentColor"></path></svg>