<svg xmlns:xlink="http://www.w3.org/1999/xlink" width="36" height="36" viewBox="0 0 37 54" fill="none" xmlns="http://www.w3.org/2000/svg" color="black" class="sc-EHOje dOAnFC icon"><path fill-rule="evenodd" clip-rule="evenodd" d="M0.5 0.5H36.5L32.9997 38.4405L18.5 53.5L4.00031 38.4405L0.5 0.5ZM1.85732 2.61119L5.06771 37.4093L8.33564 36.2943L4.98557 5.73951L1.85732 2.61119ZM6.29348 7.04746L9.45818 35.9114L12.7269 34.7962L9.39146 10.1455L6.29348 7.04746ZM10.601 10.452L13.9136 34.9335L18.5 39.9794L23.0864 34.9335L26.399 10.452H10.601ZM27.6085 10.1455L24.2731 34.7962L27.5419 35.9114L30.7065 7.04716L27.6085 10.1455ZM30.0948 6.0295H6.90494L10.1808 9.30543H26.8192L30.0948 6.0295ZM31.2412 4.88291H5.75838L2.52215 1.64659H34.4772L31.2412 4.88291ZM32.0145 5.73912L28.6644 36.2944L31.9323 37.4093L35.1427 2.61053L32.0145 5.73912ZM31.4001 38.4404L28.2051 37.3504L19.0789 46.9602V51.2373L31.4001 38.4404ZM17.9211 51.2373V46.9602L8.79572 37.3501L5.59995 38.4404L17.9211 51.2373ZM9.99608 36.9406L17.9211 45.2865V41.0563L13.1898 35.8509L9.99608 36.9406ZM19.0789 41.0563V45.2867L27.0046 36.9408L23.8102 35.8509L19.0789 41.0563Z" fill="currentColor"></path></svg>