<svg xmlns:xlink="http://www.w3.org/1999/xlink" width="36" height="36" viewBox="0 0 29 58" fill="none" xmlns="http://www.w3.org/2000/svg" color="black" class="sc-EHOje dOAnFC icon"><path fill-rule="evenodd" clip-rule="evenodd" d="M0.552734 0.137695H28.4473L25.0362 57.8629H3.96377L0.552734 0.137695ZM1.69372 1.97188L4.89665 56.1755L7.26979 53.8129L3.94834 4.2163L1.69372 1.97188ZM5.05526 5.31823L8.23833 52.8486L10.1991 50.8968L6.84715 7.10199L5.05526 5.31823ZM8.01253 6.80764L5.69791 4.50347H23.3021L20.9874 6.80764H8.01253ZM7.96625 8.21603L11.1597 49.9406L12.7097 48.3976L9.39614 9.63942L7.96625 8.21603ZM10.1064 8.89198L9.04803 7.83845H19.952L18.8936 8.89198H10.1064ZM10.4549 9.92279L13.7169 48.0778H15.2831L18.5451 9.92279H10.4549ZM19.6039 9.63942L16.2903 48.3976L17.8403 49.9406L21.0337 8.21603L19.6039 9.63942ZM22.1528 7.10199L18.8009 50.8968L20.7616 52.8486L23.9447 5.31823L22.1528 7.10199ZM25.0516 4.2163L21.7302 53.8129L24.1033 56.1755L27.3063 1.97189L25.0516 4.2163ZM26.6522 1.1685H2.34779L4.66242 3.47266H24.3375L26.6522 1.1685ZM23.3021 56.8321L20.9874 54.5277H8.01253L5.69791 56.8321H23.3021ZM9.04803 53.4969H19.952L18.0561 51.6098H10.9439L9.04803 53.4969ZM11.9794 50.579H17.0206L15.5435 49.1086H13.4565L11.9794 50.579Z" fill="currentColor"></path></svg>