<svg xmlns:xlink="http://www.w3.org/1999/xlink" width="36" height="36" viewBox="0 0 55 48" fill="none" xmlns="http://www.w3.org/2000/svg" color="black" class="sc-EHOje dOAnFC icon"><path fill-rule="evenodd" clip-rule="evenodd" d="M20.7162 27.2771L26.2723 3.62695L27.4833 3.91188L21.8429 27.9208L2.42732 46.5476L1.56641 45.6489L20.7162 27.2771Z" fill="currentColor"></path><path fill-rule="evenodd" clip-rule="evenodd" d="M34.2836 27.2767L28.7276 3.62695L27.5166 3.91188L33.1571 27.9213L51.3292 45.3033L52.1888 44.4033L34.2836 27.2767Z" fill="currentColor"></path><path fill-rule="evenodd" clip-rule="evenodd" d="M27.2653 38.9942L3.7386 46.3805L3.36621 45.1926L27.2622 37.6904L52.5644 45.5032L52.1976 46.6928L27.2653 38.9942Z" fill="currentColor"></path><path fill-rule="evenodd" clip-rule="evenodd" d="M26.8779 18.0862V2.21289H28.1219V18.0862H26.8779Z" fill="currentColor"></path><path fill-rule="evenodd" clip-rule="evenodd" d="M1.66309 46.1952L15.3475 37.4805L16.0155 38.5308L2.33098 47.2456L1.66309 46.1952Z" fill="currentColor"></path><path fill-rule="evenodd" clip-rule="evenodd" d="M52.7063 45.5676L39.0218 37.1641L38.3711 38.2252L52.0556 46.6287L52.7063 45.5676Z" fill="currentColor"></path><path fill-rule="evenodd" clip-rule="evenodd" d="M27.4998 0.657227L0.56543 47.3434H54.4341L27.4998 0.657227ZM27.4998 3.14716L2.72018 46.0985H52.2794L27.4998 3.14716Z" fill="currentColor"></path><path fill-rule="evenodd" clip-rule="evenodd" d="M27.4998 16.2197L14.5713 38.6291H40.4283L27.4998 16.2197ZM27.4998 18.7097L16.726 37.3841H38.2735L27.4998 18.7097Z" fill="currentColor"></path></svg>