<svg xmlns:xlink="http://www.w3.org/1999/xlink" width="36" height="36" viewBox="0 0 33 54" fill="none" xmlns="http://www.w3.org/2000/svg" color="black" class="sc-EHOje dOAnFC icon"><path fill-rule="evenodd" clip-rule="evenodd" d="M0.5 0.5H32.5V38.4417L16.5 53.5L0.5 38.4417V0.5ZM1.71739 2.4317V37.4727L5.19565 36.292V5.62032L1.71739 2.4317ZM6.41307 6.73633V35.8787L9.89129 34.6981V9.92499L6.41307 6.73633ZM11.0081 9.34841L7.43328 6.07124H25.3059L21.731 9.34841H11.0081ZM11.1087 10.4954V35.0008L16.5 40.0804L21.8913 35.0008V10.4954H11.1087ZM23.1087 9.68584V34.8299L26.5869 36.0105V6.49719L23.1087 9.68584ZM27.8044 5.38118V36.4238L31.2826 37.6045V2.19255L27.8044 5.38118ZM30.1319 1.64702H2.60716L6.18202 4.92422H26.5571L30.1319 1.64702ZM30.6131 38.5963L27.2173 37.4437L17.1087 47.0269V51.3059L30.6131 38.5963ZM15.8913 51.3059V47.0269L5.68035 37.3467L2.28404 38.4995L15.8913 51.3059ZM6.94415 36.9177L15.8913 45.3998V41.129L10.2357 35.8004L6.94415 36.9177ZM17.1087 41.129V45.3998L25.9535 37.0147L22.6615 35.8972L17.1087 41.129Z" fill="currentColor"></path></svg>