<svg xmlns:xlink="http://www.w3.org/1999/xlink" width="36" height="36" viewBox="0 0 53 52" fill="none" xmlns="http://www.w3.org/2000/svg" color="black" class="sc-EHOje dOAnFC icon"><path fill-rule="evenodd" clip-rule="evenodd" d="M26.5005 50.247C39.8914 50.247 50.747 39.3914 50.747 26.0005C50.747 12.6095 39.8914 1.75398 26.5005 1.75398C13.1095 1.75398 2.25398 12.6095 2.25398 26.0005C2.25398 39.3914 13.1095 50.247 26.5005 50.247ZM26.5005 51.5576C40.6153 51.5576 52.0576 40.1153 52.0576 26.0005C52.0576 11.8857 40.6153 0.443359 26.5005 0.443359C12.3857 0.443359 0.943359 11.8857 0.943359 26.0005C0.943359 40.1153 12.3857 51.5576 26.5005 51.5576Z" fill="currentColor"></path><path fill-rule="evenodd" clip-rule="evenodd" d="M37.1215 3.85643L4.02831 36.9497L3.10156 36.0229L36.1948 2.92969L37.1215 3.85643Z" fill="currentColor"></path><path fill-rule="evenodd" clip-rule="evenodd" d="M48.6537 36.6294C35.6027 24.0423 28.3527 16.7872 15.5439 3.51968L16.4869 2.60938C29.2852 15.866 36.5241 23.1101 49.5635 35.686L48.6537 36.6294Z" fill="currentColor"></path><path fill-rule="evenodd" clip-rule="evenodd" d="M35.8586 49.7183C23.5518 36.957 16.3837 29.8623 3.11426 17.3014L4.01524 16.3496C17.2986 28.9237 24.4809 36.0325 36.802 48.8085L35.8586 49.7183Z" fill="currentColor"></path><path fill-rule="evenodd" clip-rule="evenodd" d="M33.5172 33.0182L50.2231 16.64L49.3055 15.7041L32.5905 32.0915L16.2031 48.8065L17.139 49.724L33.5172 33.0182Z" fill="currentColor"></path><path fill-rule="evenodd" clip-rule="evenodd" d="M43.3395 44.2104L32.8545 33.0701L33.8089 32.1719L44.2939 43.3122L43.3395 44.2104Z" fill="currentColor"></path><path fill-rule="evenodd" clip-rule="evenodd" d="M19.7751 20.6478L7.97949 9.50751L8.87943 8.55469L20.675 19.695L19.7751 20.6478Z" fill="currentColor"></path><path fill-rule="evenodd" clip-rule="evenodd" d="M44.9204 9.83428L33.7801 20.3193L32.8818 19.3649L44.0221 8.87988L44.9204 9.83428Z" fill="currentColor"></path><path fill-rule="evenodd" clip-rule="evenodd" d="M20.3891 33.2076L9.24879 45.0032L8.2959 44.1032L19.4362 32.3076L20.3891 33.2076Z" fill="currentColor"></path><path fill-rule="evenodd" clip-rule="evenodd" d="M16.0166 48.9097C16.7509 30.868 16.7082 20.8465 16.0166 3.09007L17.3262 3.03906C18.019 20.8273 18.062 30.8837 17.3262 48.963L16.0166 48.9097Z" fill="currentColor"></path><path fill-rule="evenodd" clip-rule="evenodd" d="M36.8649 48.9097C36.1307 30.868 36.1734 20.8465 36.865 3.09007L35.5553 3.03906C34.8625 20.8273 34.8196 30.8837 35.5554 48.963L36.8649 48.9097Z" fill="currentColor"></path><path fill-rule="evenodd" clip-rule="evenodd" d="M49.1264 17.8092C31.2504 18.2906 21.2673 18.2892 3.54688 17.8092L3.58237 16.499C21.2791 16.9784 31.2386 16.9798 49.0911 16.499L49.1264 17.8092Z" fill="currentColor"></path><path fill-rule="evenodd" clip-rule="evenodd" d="M49.1264 34.882C31.2504 34.4006 21.2673 34.402 3.54688 34.882L3.58237 36.1922C21.2791 35.7128 31.2386 35.7114 49.0911 36.1922L49.1264 34.882Z" fill="currentColor"></path><path fill-rule="evenodd" clip-rule="evenodd" d="M25.8457 17.8772V1.09961H27.1563V17.8772H25.8457Z" fill="currentColor"></path><path fill-rule="evenodd" clip-rule="evenodd" d="M26.123 50.9697V35.2422H27.4337V50.9697H26.123Z" fill="currentColor"></path><path fill-rule="evenodd" clip-rule="evenodd" d="M35.2969 25.4121H51.6796V26.7227H35.2969V25.4121Z" fill="currentColor"></path><path fill-rule="evenodd" clip-rule="evenodd" d="M1.2207 25.4121H16.9481V26.7227H1.2207V25.4121Z" fill="currentColor"></path></svg>