<svg xmlns:xlink="http://www.w3.org/1999/xlink" width="36" height="36" viewBox="0 0 45 44" fill="none" xmlns="http://www.w3.org/2000/svg" color="black" class="sc-EHOje dOAnFC icon"><path fill-rule="evenodd" clip-rule="evenodd" d="M8.96525 0H9.3335H34.8071H35.1754L44.0703 9.33178V9.58974V34.4103V34.6682L35.1754 44H34.8071H9.3335H8.96525L0.0703125 34.6682V34.4103V9.58974V9.33178L8.96525 0ZM13.0586 42.8718H21.4914V39.7417L13.0586 42.8718ZM22.6493 42.8718H31.0821L22.6493 39.7416V42.8718ZM34.8071 42.7285L38.2573 39.1089L34.8071 35.267V42.7285ZM34.8071 34.4105L34.8074 34.4103H34.8071V34.4105ZM33.6493 34.4103H26.4963L22.37 38.4307L33.6493 42.6174V34.4103ZM24.8588 34.4103H19.2818L22.0703 37.1272L24.8588 34.4103ZM17.6444 34.4103H10.4914V42.6174L21.7706 38.4307L17.6444 34.4103ZM10.4914 33.2821H16.4865L10.4914 27.4407V33.2821ZM18.124 33.2821H26.0167L33.6493 25.8451V18.4095L25.7553 10.7179H18.3854L10.4914 18.4095V25.8451L18.124 33.2821ZM27.6541 33.2821H33.6493V27.4407L27.6541 33.2821ZM34.8071 33.2821H42.0723L38.0949 23.109L34.8071 26.3125V33.2821ZM9.3335 34.4103V34.4104L9.33333 34.4103H9.3335ZM9.3335 35.2671V42.7285L5.88345 39.1089L9.3335 35.2671ZM5.61688 5.17068L9.3335 1.27155V8.79199L5.61688 5.17068ZM27.3928 10.7179H33.6493V16.814L27.3928 10.7179ZM10.4914 10.7179H16.7478L10.4914 16.814V10.7179ZM1.4892 10.7179H9.3335V17.9422L5.69848 21.484L1.4892 10.7179ZM34.8071 17.9422V10.7179H42.0725L38.0229 21.0755L34.8071 17.9422ZM34.8071 1.27155V8.79205L38.5238 5.17073L34.8071 1.27155ZM33.6493 9.58974V1.38261L22.1808 5.63955L26.2349 9.58974H33.6493ZM21.9599 5.63953L10.4914 1.38259V9.58974H17.9057L21.9599 5.63953ZM1.22821 13.2196V21.4359H4.44061L1.22821 13.2196ZM1.22821 22.5641V30.7809L4.4408 22.5641H1.22821ZM1.40469 34.4103L5.09122 38.2779L8.5644 34.4103H1.40469ZM9.3335 33.2821V26.3125L5.62652 22.7006L1.4894 33.2821H9.3335ZM9.3335 19.5378L6.67573 22.1273L9.3335 24.7169V19.5378ZM8.5147 9.58974H1.40469L4.82837 5.99793L8.5147 9.58974ZM39.3123 5.99799L42.7359 9.58974H35.626L39.3123 5.99799ZM39.121 21.4359L42.9124 11.7388V21.4359H39.121ZM39.1209 22.5641H42.9124V32.2617L39.1209 22.5641ZM37.4649 22.1273L34.8071 24.7169V19.5378L37.4649 22.1273ZM39.0495 38.2777L35.5764 34.4103H42.7359L39.0495 38.2777ZM24.5974 9.58974L22.0703 7.12749L19.5432 9.58974H24.5974ZM13.0586 1.12821L21.4914 4.25832V1.12821H13.0586ZM22.6493 4.25834L31.0821 1.12821H22.6493V4.25834Z" fill="currentColor"></path></svg>