<svg xmlns:xlink="http://www.w3.org/1999/xlink" width="36" height="36" viewBox="0 0 27 52" fill="none" xmlns="http://www.w3.org/2000/svg" color="black" class="sc-EHOje dOAnFC icon"><path fill-rule="evenodd" clip-rule="evenodd" d="M0.375737 25.2899L0.373669 25.2898C0.196853 29.3199 1.64428 35.8902 5.61998 41.4232C9.61925 46.9891 16.1791 51.5044 26.1679 51.3385H26.3525V50.9662V1.01732V0.65625H26.1541C15.9668 0.65625 9.49487 5.00926 5.58759 10.3272C1.80087 15.4811 0.441545 21.5123 0.375737 25.2899ZM23.9444 2.01038C22.5236 2.10661 21.1879 2.29541 19.9326 2.56471L18.0373 7.52603L23.9444 2.01038ZM16.3864 8.325L18.447 2.9306C16.4809 3.47956 14.7289 4.2346 13.1706 5.1413L16.3864 8.325ZM10.9907 6.59698C9.34346 7.85108 7.96102 9.28512 6.8077 10.8048L8.50064 12.1596L10.9907 6.59698ZM7.67938 13.1292L6.06641 11.8384C5.02971 13.3687 4.20603 14.9646 3.56389 16.5373L7.67938 13.1292ZM2.45582 19.8342C1.92383 21.826 1.6744 23.6647 1.63308 25.1406H3.95976C3.7878 23.5702 3.29795 21.8702 2.45582 19.8342ZM4.03021 26.4213H1.61967C1.66739 28.0864 1.97169 30.1054 2.59062 32.2541C3.54409 30.1304 4.01817 28.3322 4.02999 26.4799C4.03011 26.4604 4.03018 26.4409 4.03021 26.4213ZM3.67796 35.3468C4.42822 37.1433 5.40218 38.9558 6.63056 40.6654C7.85737 42.3727 9.33775 43.9777 11.104 45.3614L8.49466 39.2479L8.31011 39.1827L3.67796 35.3468ZM10.1052 39.8171L12.6586 45.7995L15.587 41.7542L10.1052 39.8171ZM16.4206 42.7564L13.3996 46.93C14.8502 47.7875 16.4575 48.5039 18.2339 49.0342L16.4206 42.7564ZM19.649 49.408C20.9772 49.7149 22.3926 49.9213 23.8999 50.0111L17.9569 43.5503L19.649 49.408ZM19.1995 43.0308L23.7517 47.9798L22.063 44.0427L19.1995 43.0308ZM23.4866 44.1707L25.0989 47.9296V4.16832L23.6201 7.28605L23.4866 44.1707ZM22.4181 6.88328L23.8762 3.80917L19.1725 8.20114L22.4181 6.88328ZM15.8305 9.55811L12.5136 6.27434L9.98036 11.9335L15.8305 9.55811ZM8.14031 14.3962L3.23548 18.4579C4.24702 20.7544 4.88814 22.7129 5.14942 24.5521L8.43331 20.0517C8.35793 18.2932 8.26039 16.4345 8.14031 14.3962ZM8.5122 22.0866L5.75103 25.8706L8.62807 29.6026C8.63853 27.0691 8.60051 24.6569 8.5122 22.0866ZM9.86892 31.2122C9.91206 27.5292 9.85923 24.2043 9.70496 20.452L16.9432 10.5323L19.8205 12.7464V38.4612L16.9652 40.4173L9.86892 31.2122ZM8.60961 31.6486L5.25221 27.2935C5.10802 29.3046 4.4739 31.2573 3.41041 33.4766L8.46009 37.6583C8.53391 35.4874 8.58394 33.5181 8.60961 31.6486ZM9.69171 38.3157C9.75591 36.5011 9.80426 34.8277 9.83636 33.2398L15.2687 40.2866L9.69171 38.3157ZM17.9988 41.2513L21.3778 42.4454L20.2145 39.7333L17.9988 41.2513ZM21.0742 38.6923L21.1267 38.6689L22.2434 41.2724L22.3569 9.94957L21.0742 12.654V38.6923ZM20.2434 11.4684L21.6085 8.59019L18.2665 9.94723L20.2434 11.4684ZM14.7708 11.3666L9.61431 18.4333C9.54069 16.9119 9.45166 15.3057 9.34691 13.5689L14.7708 11.3666Z" fill="currentColor"></path></svg>