<svg xmlns:xlink="http://www.w3.org/1999/xlink" width="36" height="36" viewBox="0 0 55 54" fill="none" xmlns="http://www.w3.org/2000/svg" color="black" class="sc-EHOje dOAnFC icon"><path fill-rule="evenodd" clip-rule="evenodd" d="M0.463867 0.65625H24.0337V34.5378H0.463867V0.65625ZM1.66481 1.39281L5.01379 5.07562H19.2178L22.7944 1.39281H1.66481ZM23.2971 1.93236L19.7373 5.59788V29.85L23.2971 33.2998V1.93236ZM22.7562 33.8013L19.3361 30.4868H4.9025L1.70007 33.8013H22.7562ZM1.20042 33.2583V1.97692L4.37325 5.46603V29.9746L1.20042 33.2583ZM5.61416 29.7502H18.5761L17.436 28.6454H6.68161L5.61416 29.7502ZM6.89363 27.9089H17.2169V7.65357H6.89363V27.9089ZM6.68824 6.91701H17.4295L18.5025 5.81218H5.68358L6.68824 6.91701ZM5.1098 6.27602V29.2122L6.15708 28.1283V7.4277L5.1098 6.27602ZM19.0008 6.35631L17.9535 7.4347V28.1212L19.0008 29.1361V6.35631Z" fill="currentColor"></path><path fill-rule="evenodd" clip-rule="evenodd" d="M40.6704 22.8408L44.9606 22.8408L51.7447 28.6178L53.2135 33.463L54.5358 38.158L51.8909 47.5635L44.941 53.3429L36.3838 53.3267L29.3045 47.5497L26.8066 38.1587L29.304 28.6327L36.3661 22.857L40.6704 22.8408ZM39.4776 23.5084L36.9067 23.5181L37.2911 24.891C37.8285 24.5712 38.2724 24.2839 38.7204 23.9939L38.7219 23.9929C38.9674 23.8339 39.2143 23.6741 39.4776 23.5084ZM36.6847 25.12L34.0249 25.6187L36.3028 23.7558L36.6847 25.12ZM32.2782 27.0472L30.1005 28.8281L31.0978 29.668L32.2782 27.0472ZM31.9069 30.3494L33.3603 31.5734C33.7499 30.945 34.1294 30.3052 34.5104 29.6338C33.6951 29.872 32.8368 30.1065 31.9069 30.3494ZM35.4043 29.3658C34.8908 30.2934 34.3859 31.1545 33.8623 31.9962L40.0749 37.2284L37.663 28.614C36.9235 28.8801 36.1797 29.1269 35.4043 29.3658ZM37.4843 27.9758C36.9487 28.169 36.4109 28.3519 35.8601 28.529C36.2333 27.8332 36.615 27.0961 37.0151 26.3001L37.4843 27.9758ZM38.2709 28.3905L40.6696 36.9578L43.0517 28.406C42.2588 28.1098 41.4685 27.7896 40.6426 27.428C39.8277 27.7825 39.0476 28.0989 38.2709 28.3905ZM39.823 27.0608C39.2353 27.3084 38.6627 27.5369 38.0921 27.7518L37.5993 25.9919C38.3872 26.3866 39.1213 26.7397 39.823 27.0608ZM41.4645 27.0631C42.0621 27.3158 42.6452 27.5481 43.2296 27.7671L43.7237 25.9934C42.9251 26.3859 42.1785 26.7398 41.4645 27.0631ZM44.315 26.2768L43.8378 27.9901C44.3798 28.1846 44.9277 28.37 45.4939 28.5519C45.1132 27.8426 44.7237 27.0904 44.315 26.2768ZM45.9505 29.3894C45.1556 29.1432 44.4024 28.8943 43.6599 28.6285L41.2711 37.2046L47.4117 31.8875C46.9166 31.0874 46.4373 30.2682 45.9505 29.3894ZM47.9091 31.4568C47.5499 30.8742 47.1988 30.2809 46.8466 29.6608C47.5841 29.8796 48.3636 30.1004 49.2067 30.3332L47.9091 31.4568ZM47.7638 32.4492L41.5537 37.8265H49.2673C49.2627 36.8469 49.2818 35.8492 49.328 34.7928C48.7717 33.9954 48.2576 33.2269 47.7638 32.4492ZM49.3827 33.7264C48.992 33.1525 48.6209 32.5886 48.2604 32.0192L49.6001 30.8592C49.5073 31.8781 49.4355 32.8264 49.3827 33.7264ZM49.9403 35.6588C49.9174 36.4012 49.9083 37.1185 49.9116 37.8265H51.5299C50.9569 37.0598 50.4313 36.3446 49.9403 35.6588ZM51.5305 38.4896H49.9183C49.9294 39.1967 49.9526 39.8995 49.9866 40.614C50.4631 39.9388 50.9737 39.2371 51.5305 38.4896ZM49.3869 41.476C49.3282 40.4612 49.2893 39.48 49.274 38.4896H41.5724L47.871 43.7942C48.3486 43.0257 48.8469 42.2641 49.3869 41.476ZM48.3731 44.217C48.72 43.6572 49.0776 43.1016 49.4543 42.537C49.5151 43.419 49.5891 44.3356 49.674 45.3127L48.3731 44.217ZM47.5244 44.3591L41.2661 39.0884L43.6754 47.6971C44.4634 47.3988 45.2576 47.1223 46.0905 46.8561C46.5674 45.9828 47.0375 45.1629 47.5244 44.3591ZM46.9847 46.5788C47.3298 45.961 47.6742 45.3671 48.0272 44.7825L49.3656 45.9097C48.5201 46.1327 47.7336 46.3534 46.9847 46.5788ZM45.6362 47.7003C45.0301 47.9031 44.4406 48.1133 43.8541 48.3359L44.3673 50.1694C44.8098 49.285 45.2281 48.4694 45.6362 47.7003ZM43.7697 50.43L43.2493 48.5703C42.6686 48.7998 42.086 49.043 41.4882 49.3047C42.2153 49.6471 42.9691 50.0197 43.7697 50.43ZM40.6905 48.9364C41.5071 48.5698 42.2898 48.2382 43.0703 47.9307L40.6696 39.353L38.2606 47.916C39.0661 48.2272 39.8654 48.5633 40.6905 48.9364ZM38.0809 48.5548C38.6822 48.7879 39.2805 49.0353 39.8894 49.3021C39.1523 49.6439 38.3813 50.0153 37.5552 50.4236L38.0809 48.5548ZM37.6544 47.6869L40.0765 39.0769L33.7817 44.3019C34.2843 45.1299 34.7685 45.9743 35.2605 46.8769C36.0899 47.1337 36.8786 47.4002 37.6544 47.6869ZM35.7098 47.713C36.3131 47.9086 36.8974 48.1111 37.4748 48.325L36.9614 50.1499C36.5249 49.2772 36.1122 48.4721 35.7098 47.713ZM34.3728 46.6101C34.0098 45.959 33.648 45.3352 33.2765 44.7212L31.8322 45.92C32.737 46.1504 33.5765 46.3777 34.3728 46.6101ZM31.5337 45.3159L32.9304 44.1566C32.5582 43.5573 32.1732 42.9624 31.7652 42.3553C31.7024 43.2952 31.6243 44.2716 31.5337 45.3159ZM31.8301 41.2955C32.4051 42.1291 32.9318 42.9301 33.4349 43.7379L39.7579 38.4896H31.9319C31.9177 39.4214 31.8827 40.3451 31.8301 41.2955ZM31.2875 38.4896C31.2775 39.1379 31.2574 39.7825 31.2281 40.4355C30.7881 39.8156 30.3186 39.1719 29.8104 38.4896H31.2875ZM31.9385 37.8265H39.7677L33.5096 32.556C32.9989 33.3564 32.4656 34.1487 31.8857 34.9749C31.9261 35.9634 31.9427 36.9029 31.9385 37.8265ZM31.2709 35.8397C31.2898 36.5176 31.2972 37.1759 31.2942 37.8265H29.811C30.3338 37.1269 30.8172 36.4702 31.2709 35.8397ZM31.834 33.9086C32.2442 33.3103 32.6323 32.7244 33.0082 32.1337L31.6161 30.9613C31.7103 32.0092 31.7822 32.9835 31.834 33.9086ZM30.9722 30.9963C31.0955 32.3637 31.1806 33.6042 31.2323 34.773C30.655 35.5907 30.0303 36.4448 29.3348 37.3761L28.6534 33.8L30.9722 30.9963ZM30.7549 30.236L28.9922 32.3673L29.7687 29.4054L30.7549 30.236ZM28.2577 35.169L27.561 37.8265H28.7641L28.2577 35.169ZM28.7714 38.4896L28.2965 41.2485L27.5626 38.4896H28.7714ZM29.053 44.0926L29.7682 46.7814L30.671 46.032L29.053 44.0926ZM30.8902 45.2769C31.0081 43.921 31.1046 42.6817 31.1737 41.4899C30.618 40.6896 30.0159 39.8565 29.3455 38.9553L28.7077 42.6609L30.8902 45.2769ZM31.0202 46.594L30.1032 47.3552L32.15 49.0255L31.0202 46.594ZM34.314 50.7914L36.3203 52.4286L36.6389 51.2962L34.314 50.7914ZM37.2446 51.5277L39.3585 52.6692L36.9247 52.6646L37.2446 51.5277ZM41.9815 52.6742L44.3991 52.6788L44.0826 51.5478L41.9815 52.6742ZM44.6881 51.3156L46.9619 50.8098L45.0026 52.4392L44.6881 51.3156ZM49.0879 49.0419L51.099 47.3695L50.1826 46.5978L49.0879 49.0419ZM50.5273 46.0313L52.1987 44.0837L51.4358 46.7964L50.5273 46.0313ZM52.9963 41.2473L52.5636 38.4896H53.7718L52.9963 41.2473ZM53.7717 37.8265H52.5635L52.995 35.0688L53.7717 37.8265ZM52.156 32.2009L51.3024 29.3852L50.3917 30.1737L52.156 32.2009ZM50.2355 30.9881C50.1177 32.2904 50.0346 33.4759 49.982 34.5928C50.5888 35.4573 51.2473 36.3596 51.9857 37.3487L52.5625 33.6619L50.2355 30.9881ZM51.986 38.9679C51.2701 39.9306 50.6315 40.8167 50.0437 41.6686C50.1123 42.8032 50.2053 43.985 50.3175 45.274L52.5647 42.6556L51.986 38.9679ZM50.0698 29.5859L49.0121 27.1515L50.9628 28.8127L50.0698 29.5859ZM47.0529 25.4832L44.6414 25.105L45.0186 23.7508L47.0529 25.4832ZM44.4171 23.5039H41.8306L44.0366 24.8701L44.4171 23.5039ZM43.5512 25.3433L40.6653 23.5561C40.0486 23.9174 39.5585 24.2346 39.0634 24.5551L39.0619 24.5562C38.6654 24.8128 38.2657 25.0716 37.7985 25.3541C38.8239 25.8693 39.7563 26.313 40.6436 26.7071C41.551 26.3072 42.5056 25.8588 43.5512 25.3433ZM36.5293 25.8232C35.9828 26.9147 35.4722 27.8942 34.9719 28.8063C33.9877 29.1049 32.9477 29.393 31.7961 29.6942L33.2639 26.4354L36.5293 25.8232ZM44.8013 25.8008C45.3568 26.9109 45.8751 27.9052 46.383 28.8304C47.3153 29.1155 48.3096 29.3992 49.4155 29.7044L47.9328 26.2919L44.8013 25.8008ZM49.4894 46.5615C48.4213 46.8438 47.4485 47.1221 46.5267 47.4117C45.9994 48.3856 45.461 49.4294 44.8793 50.5947L47.9932 49.9021L49.4894 46.5615ZM43.5762 51.0717C42.5491 50.5438 41.6013 50.079 40.6894 49.6609C39.7752 50.076 38.8138 50.5364 37.7607 51.0576L40.671 52.6292L43.5762 51.0717ZM36.4507 50.5776C35.8766 49.4276 35.3454 48.3967 34.8256 47.4353C33.8653 47.143 32.8466 46.862 31.7261 46.5761L33.2639 49.8857L36.4507 50.5776Z" fill="currentColor"></path></svg>