<svg xmlns:xlink="http://www.w3.org/1999/xlink" width="36" height="36" viewBox="0 0 51 52" fill="none" xmlns="http://www.w3.org/2000/svg" color="black" class="sc-EHOje dOAnFC icon"><path fill-rule="evenodd" clip-rule="evenodd" d="M25.2492 0.5L50.5 7.34176L43.7844 33.0332L25.2479 51.5L6.95197 33.0286L0.5 7.34327L25.2492 0.5ZM25.8972 1.99282V6.35793L43.2411 11.0572L48.2462 8.04831L25.8972 1.99282ZM48.7121 9.24557L42.7913 31.8961L39.4704 29.9343L44.1635 11.9801L48.7121 9.24557ZM41.7308 11.9652L25.8972 7.67516V11.6477L37.1759 14.7036L41.7308 11.9652ZM37.8325 15.7863L42.6327 12.9004L38.3527 29.274L34.8481 27.2037L37.8325 15.7863ZM36.5269 15.845L25.3788 12.8244L14.46 15.8435L17.3081 27.1817L25.3801 35.3311L33.5647 27.1772L36.5269 15.845ZM34.2197 28.3033L25.8972 36.5944V42.2451L37.7804 30.4067L34.2197 28.3033ZM38.9011 31.0688L25.8972 44.0237V49.0745L42.0837 32.9489L38.9011 31.0688ZM24.6506 49.1068V43.9423L11.7715 30.9396L8.50671 32.808L24.6506 49.1068ZM7.90364 31.6937L11.2941 29.7534L6.84793 12.0532L2.27438 9.28356L7.90364 31.6937ZM2.69188 8.05622L7.67723 11.0753L24.6506 6.38206V1.9845L2.69188 8.05622ZM24.6506 7.70105L9.17248 11.9809L13.7135 14.7309L24.6506 11.7067V7.70105ZM13.185 15.891L8.36582 12.9725L12.4193 29.1094L15.9918 27.065L13.185 15.891ZM16.549 28.2055L12.9033 30.292L24.6506 42.152V36.3849L16.549 28.2055Z" fill="currentColor"></path></svg>