<svg xmlns:xlink="http://www.w3.org/1999/xlink" width="36" height="36" viewBox="0 0 44 44" fill="none" xmlns="http://www.w3.org/2000/svg" color="black" class="sc-EHOje dOAnFC icon"><path fill-rule="evenodd" clip-rule="evenodd" d="M7.82598 0.536133H37.1388L43.4138 7.22224L43.6777 36.218L36.4245 43.4639L7.46132 43.35L0.75 36.2106V7.20578L7.82598 0.536133ZM7.76065 2.01874L8.28267 3.92427L4.10288 7.82466L2.2807 7.18399L7.76065 2.01874ZM1.79062 8.10303V35.3549L3.61172 34.6442V8.74331L1.79062 8.10303ZM4.65235 11.0715V32.4331C5.71218 29.6985 6.89649 25.9175 7.75988 21.7523C6.89649 17.5871 5.71218 13.8061 4.65235 11.0715ZM8.24354 24.3383C7.25878 28.3929 6.03229 31.9375 5.01002 34.3051C6.29335 34.0797 7.62147 33.94 8.97468 33.8727C9.06626 30.7458 8.76643 27.4822 8.24354 24.3383ZM10.0167 33.8351C10.125 29.8999 9.63181 25.7891 8.86962 21.9887C8.85382 21.9097 8.83786 21.831 8.82179 21.7523C8.83786 21.6736 8.85382 21.5949 8.86962 21.516C9.62218 17.7635 10.1125 13.7085 10.0206 9.81876C13.9526 9.90803 18.0508 9.42382 21.8436 8.68123C21.9234 8.6656 22.0032 8.64986 22.0828 8.63395C22.1624 8.64986 22.2422 8.6656 22.322 8.68123C26.1586 9.43241 30.3078 9.91914 34.2813 9.81546C34.189 13.7062 34.6794 17.7625 35.4322 21.516C35.448 21.5949 35.464 21.6736 35.48 21.7523C35.464 21.831 35.448 21.9097 35.4322 21.9887C34.6698 25.7902 34.1765 29.9022 34.2851 33.8384C30.3105 33.7342 26.1599 34.2211 22.322 34.9725C22.2422 34.9882 22.1624 35.0039 22.0828 35.0198C22.0032 35.0039 21.9234 34.9882 21.8436 34.9725C18.0496 34.2297 13.95 33.7454 10.0167 33.8351ZM8.92977 34.9045C7.68993 34.9695 6.47552 35.0973 5.30256 35.2982L8.5814 38.0891C8.75284 37.0553 8.86654 35.99 8.92977 34.9045ZM8.72922 39.5721L4.04156 35.582L2.24017 36.2849L7.61431 42.0019L8.72922 39.5721ZM8.60804 42.3263L35.5015 42.4321L34.6664 40.2828H9.56411L9.55091 40.2715L8.60804 42.3263ZM10.9714 39.2546H33.1943C30.4065 38.1789 26.4536 36.9535 22.0828 36.069C17.712 36.9535 13.7592 38.1789 10.9714 39.2546ZM19.4655 35.5911C16.3367 35.0831 13.0907 34.7882 9.97424 34.8645C9.90121 36.1821 9.75619 37.4748 9.52641 38.7239C11.9211 37.7266 15.4457 36.5442 19.4655 35.5911ZM24.7002 35.5911C28.8034 36.5641 32.3907 37.7758 34.7868 38.7857C34.5506 37.5186 34.4021 36.2062 34.3278 34.8681C31.1697 34.7796 27.8747 35.0757 24.7002 35.5911ZM35.3725 34.9119C35.4401 36.0676 35.5648 37.2003 35.7556 38.2965L38.5926 35.2533C37.5471 35.085 36.47 34.9736 35.3725 34.9119ZM39.8265 35.4474L35.6451 39.9327L36.4421 41.9841L42.2518 36.1803L39.8265 35.4474ZM42.628 35.2188L42.3825 8.25547L40.5539 8.80803V34.5921L42.628 35.2188ZM39.5133 32.0777V11.4269C38.4893 14.1292 37.3685 17.7647 36.5419 21.7523C37.3685 25.7399 38.4893 29.3754 39.5133 32.0777ZM36.0583 24.3383C35.535 27.4846 35.2351 30.7506 35.3273 33.8797C36.6852 33.9522 38.0172 34.0983 39.3032 34.3314C38.2786 31.9639 37.0467 28.408 36.0583 24.3383ZM36.0583 19.1663C37.0245 15.1882 38.2233 11.701 39.2337 9.33483C37.968 9.56086 36.6582 9.70313 35.3232 9.77423C35.2447 12.8578 35.5433 16.0701 36.0583 19.1663ZM35.3641 8.74232C36.6345 8.67116 37.8776 8.53346 39.076 8.31816L35.7539 5.21809C35.5559 6.35845 35.4292 7.53825 35.3641 8.74232ZM32.5331 4.64889H11.6325C14.3675 5.66069 18.047 6.76803 22.0828 7.58476C26.1187 6.76803 29.7982 5.66069 32.5331 4.64889ZM24.7002 8.06263C27.872 8.57765 31.1642 8.87363 34.3198 8.78591C34.3882 7.45295 34.5297 6.1447 34.7572 4.88044C32.3612 5.88795 28.7865 7.09367 24.7002 8.06263ZM19.4655 8.06263C15.4619 7.11332 11.9496 5.93672 9.55558 4.94196C9.77694 6.18823 9.91491 7.47683 9.98222 8.78943C13.0962 8.86505 16.3393 8.57022 19.4655 8.06263ZM8.93814 8.74969C8.87105 7.50462 8.7382 6.28548 8.52873 5.10893L5.08964 8.31816C6.331 8.54122 7.6202 8.68095 8.93814 8.74969ZM5.07914 9.3607C6.08721 11.7264 7.28085 15.2027 8.24354 19.1663C8.75812 16.0724 9.05663 12.8627 8.97876 9.78128C7.64844 9.71529 6.34233 9.57924 5.07914 9.3607ZM9.2776 3.6207H35.1171L36.2411 1.56432H8.71425L9.2776 3.6207ZM37.1517 2.06203L42.0497 7.28085L40.1086 7.86742L36.0491 4.07927L37.1517 2.06203Z" fill="currentColor"></path></svg>