<svg xmlns:xlink="http://www.w3.org/1999/xlink" width="36" height="36" viewBox="0 0 47 48" fill="none" xmlns="http://www.w3.org/2000/svg" color="black" class="sc-EHOje dOAnFC icon"><path fill-rule="evenodd" clip-rule="evenodd" d="M0 0.5H47V47.5H0V0.5ZM2.00585 1.675L7.19546 6.86458H39.8045L44.9941 1.675H2.00585ZM45.825 2.50585L40.6354 7.69546V40.3045L45.825 45.4941V2.50585ZM44.9941 46.325L39.8045 41.1354H7.19546L2.00585 46.325H44.9941ZM1.175 45.4941V2.50585L6.36458 7.69546V40.3045L1.175 45.4941ZM8.37046 39.9604H38.6295L32.167 33.4979H14.833L8.37046 39.9604ZM15.1771 32.3229H31.8229V15.6771H15.1771V32.3229ZM14.833 14.5021H32.167L38.6295 8.03958H8.37046L14.833 14.5021ZM7.53958 8.87046V39.1295L14.0021 32.667V15.333L7.53958 8.87046ZM39.4604 8.87046L32.9979 15.333V32.667L39.4604 39.1295V8.87046Z" fill="currentColor"></path></svg>