<svg xmlns:xlink="http://www.w3.org/1999/xlink" width="36" height="36" viewBox="0 0 52 52" fill="none" xmlns="http://www.w3.org/2000/svg" color="black" class="sc-EHOje dOAnFC icon"><path fill-rule="evenodd" clip-rule="evenodd" d="M24.938 0.5L38.8006 3.50427L38.8791 3.59336L38.9481 3.55907L38.9538 3.67812L47.714 13.626L51.2449 25.7197L51.2292 25.7707L51.2852 25.8086L51.2008 25.8627L47.3025 38.4838L38.8079 48.0851L25.3388 51.5L11.5282 47.3958L11.5052 47.3683L11.5004 47.3702L11.5 47.362L3.4514 37.7354L0.285156 26.3563L2.91586 13.6387L12.1569 3.6156L12.1631 3.57003L12.1871 3.58286L12.2565 3.50756L24.938 0.5ZM11.8593 5.81701L4.52429 13.7727C6.59828 14.7924 8.55553 15.6803 10.423 16.4388L11.8593 5.81701ZM10.2469 17.7415C8.24954 16.9409 6.16166 15.9974 3.95251 14.911L1.8657 24.9993L10.2249 17.9046L10.2469 17.7415ZM11.3406 18.628L2.4151 26.2034L11.4004 32.5668C13.4649 30.847 15.7986 28.6374 17.9474 25.7681C15.7758 22.7325 13.4168 20.3844 11.3406 18.628ZM18.7081 26.8722C17.0779 28.9971 15.3586 30.7601 13.7352 32.2277C16.0951 31.4556 18.4853 30.9381 20.9294 30.6964C20.2375 29.3237 19.4893 28.0506 18.7081 26.8722ZM22.2979 30.5903C21.4445 28.8384 20.501 27.2394 19.5112 25.7844C20.5419 24.3332 21.5225 22.7263 22.4035 20.9459C23.5097 21.0559 24.6068 21.1087 25.7025 21.1043C26.3654 21.1016 27.027 21.078 27.6891 21.0337C28.5483 22.8328 29.5031 24.4732 30.5074 25.9638C29.5321 27.4115 28.6034 29.0003 27.7636 30.7387C26.5297 30.6045 25.3115 30.5386 24.1064 30.5392C23.4999 30.5395 22.8972 30.5566 22.2979 30.5903ZM21.5192 31.9218C18.2994 32.1916 15.1677 32.9601 12.061 34.1856L12.6755 45.5304L24.3563 40.8741C23.7222 37.5286 22.7277 34.5544 21.5192 31.9218ZM25.7641 40.8913L37.7221 45.9498V34.5545C34.5176 33.3159 31.4657 32.5146 28.5251 32.1153C27.3515 34.704 26.3855 37.62 25.7641 40.8913ZM27.199 31.9617C26.1555 31.8617 25.1254 31.8127 24.107 31.8132C23.6958 31.8134 23.2864 31.8217 22.8784 31.8379C23.7368 33.7723 24.4824 35.881 25.0629 38.1744C25.6332 35.9295 26.3616 33.8618 27.199 31.9617ZM29.098 30.9097C31.3923 31.2476 33.7432 31.8197 36.1676 32.6372C34.5667 31.1178 32.8838 29.2784 31.2914 27.0846C30.519 28.2644 29.7801 29.5378 29.098 30.9097ZM32.0545 25.9638C34.039 28.7687 36.1878 30.9946 38.1389 32.7152L48.9729 25.777L38.6555 18.7645C36.572 20.5409 34.2158 22.909 32.0545 25.9638ZM39.9028 18.0724L49.613 24.6722L46.7809 14.972C44.3613 16.1811 42.084 17.2159 39.9028 18.0724ZM46.2029 13.8368L39.0501 5.71427L39.5762 16.8318C41.6678 16.0047 43.8618 15.0064 46.2029 13.8368ZM38.3246 17.3108L37.7689 5.56739L25.8526 11.4885C26.4653 14.527 27.3758 17.2538 28.4709 19.6921C31.6314 19.3906 34.8435 18.597 38.3246 17.3108ZM29.0463 20.9137C29.7428 22.3254 30.4994 23.6334 31.2914 24.843C32.8324 22.7201 34.4581 20.929 36.0122 19.4386C33.6243 20.1703 31.3257 20.664 29.0463 20.9137ZM27.1225 19.7909C26.316 17.9364 25.6138 15.9238 25.0606 13.7442C24.5044 15.9167 23.7958 17.903 22.9813 19.7198C23.8926 19.7972 24.7963 19.8339 25.6974 19.8303C26.1724 19.8284 26.6472 19.8153 27.1225 19.7909ZM21.6466 19.578C18.4984 19.1773 15.2316 18.2971 11.6424 16.9205L13.1789 5.55642L24.2723 11.4799C23.6614 14.5144 22.7478 17.1995 21.6466 19.578ZM21.0591 20.7848C20.3384 22.1944 19.5532 23.4891 18.731 24.6792C17.0776 22.4211 15.3309 20.5426 13.6825 19.0054C16.2479 19.8586 18.6815 20.4518 21.0591 20.7848ZM25.0634 10.4583L13.8087 4.44873L24.9507 1.80628L37.1534 4.45082L25.0634 10.4583ZM49.54 26.9263L39.1514 33.5793C39.2975 33.6999 39.442 33.8175 39.5846 33.9321C41.7719 34.85 44.0215 35.9605 46.3447 37.2714L49.54 26.9263ZM45.7019 38.3712L38.9949 45.9521V35.091C39.0316 35.1201 39.0682 35.149 39.1046 35.1778L39.1434 35.1284C41.2586 36.0186 43.441 37.0963 45.7019 38.3712ZM37.2983 47.1536L25.3655 50.179L13.3854 46.6188L25.0457 41.9706L37.2983 47.1536ZM11.385 45.2394L10.8142 34.7024C8.90187 35.5331 6.99586 36.5355 5.08129 37.6997L11.385 45.2394ZM4.45409 36.5905C6.35454 35.4366 8.25406 34.4345 10.1657 33.5956L10.1515 33.5776C10.2254 33.5194 10.2997 33.4605 10.3746 33.401L1.89582 27.3963L4.45409 36.5905Z" fill="currentColor"></path></svg>