<svg xmlns:xlink="http://www.w3.org/1999/xlink" width="36" height="36" viewBox="0 0 51 50" fill="none" xmlns="http://www.w3.org/2000/svg" color="black" class="sc-EHOje dOAnFC icon"><path fill-rule="evenodd" clip-rule="evenodd" d="M0.212891 0H50.2129L37.4187 50H12.5343L0.212891 0ZM2.74582 1.25L7.93024 5.51887H42.4589L47.6666 1.25H2.74582ZM48.3402 2.30953L43.6397 6.16266L33.7629 43.6937L36.6743 47.9001L48.3402 2.30953ZM35.7496 48.75H14.4093L17.4658 44.4812H32.795L35.7496 48.75ZM32.8326 42.3496L42.0025 7.50474L38.1815 10.6369L30.925 39.5935L32.8326 42.3496ZM29.7706 39.092L36.8335 10.908H13.5324L20.5953 39.092H29.7706ZM19.4394 39.5876L12.1842 10.6362L8.89345 7.9266L17.2712 42.6158L19.4394 39.5876ZM18.3608 43.2312H31.9298L29.9301 40.342H20.4295L18.3608 43.2312ZM16.316 43.9499L7.29902 6.61372L2.05809 2.29833L13.3448 48.0996L16.316 43.9499ZM9.44832 6.76885L12.9572 9.65801H37.4095L40.934 6.76885H9.44832Z" fill="currentColor"></path></svg>