<svg xmlns:xlink="http://www.w3.org/1999/xlink" width="36" height="36" viewBox="0 0 51 52" fill="none" xmlns="http://www.w3.org/2000/svg" color="black" class="sc-EHOje dOAnFC icon"><path fill-rule="evenodd" clip-rule="evenodd" d="M25.792 0.5L26.2026 0.823164C28.5736 2.6891 31.5124 5.46385 34.5278 8.88552L34.7601 8.74023L35.4857 9.85112L35.4077 9.89989C37.4645 12.3096 39.5349 15.0064 41.4644 17.9082C41.6765 18.2271 41.887 18.5486 42.0955 18.8726L42.348 19.2439L42.5815 19.637C47.1022 26.8444 50.6572 35.212 50.9873 43.5666L51 43.889L50.7478 44.0966C44.4488 49.2821 35.5055 51.8543 25.6698 51.4607L25.6011 51.4975L25.514 51.4543C17.4049 51.1043 8.6966 48.7409 0.368459 44.167L0 43.9646L0.0257668 43.5519C0.607382 34.2361 2.81208 26.6112 6.95776 19.7718C11.0992 12.9395 17.1535 6.93098 25.3726 0.812214L25.792 0.5ZM28.0683 50.1795C32.1857 50.1385 36.0966 49.55 39.6585 48.4515C39.5239 47.6799 39.2066 46.3078 38.7389 44.4792L28.0683 50.1795ZM40.0322 44.1054C40.4697 45.8133 40.7868 47.1644 40.9491 48.0258C43.5537 47.1093 45.9522 45.9088 48.0847 44.4401C45.2351 44.3068 42.5716 44.1952 40.0322 44.1054ZM49.5429 42.0793C49.2933 39.2345 48.6713 36.3866 47.7697 33.5859L43.8078 35.3986L49.5429 42.0793ZM43.3047 34.1734L47.3441 32.3253C46.1432 28.925 44.5463 25.6066 42.722 22.4617L43.3047 34.1734ZM41.1243 19.8384C41.1671 19.9056 41.21 19.9729 41.2527 20.0403L41.9066 33.1838L34.2818 24.3018C33.1577 20.747 31.9652 17.1318 30.7642 13.7045L41.1243 19.8384ZM39.4283 17.2933C37.7576 14.8891 36.0031 12.646 34.2631 10.6159L31.2905 12.4752L39.4283 17.2933ZM30.0483 11.6874L33.3808 9.60298C30.9854 6.89759 28.6495 4.61643 26.6333 2.89711C27.7324 5.45777 28.8887 8.46222 30.0483 11.6874ZM24.1036 3.44813C21.6218 5.38069 19.3653 7.30393 17.3232 9.24801L20.856 11.4578C21.9693 8.57187 23.0691 5.84895 24.1036 3.44813ZM20.1399 12.5746L16.3426 10.1994C13.8301 12.6851 11.6622 15.2125 9.81572 17.8438L20.1399 12.5746ZM7.52778 21.4447C5.58065 24.8535 4.11026 28.4772 3.08061 32.44L7.52778 34.3955V21.4447ZM7.20557 35.6992L2.76039 33.7446C2.13304 36.4562 1.70267 39.3268 1.45839 42.394L7.20557 35.6992ZM3.675 44.3898C5.63411 45.3464 7.60533 46.1801 9.57589 46.8939C9.61525 46.2951 9.76812 45.4457 9.99775 44.4261C10.0197 44.3287 10.0424 44.2295 10.0659 44.1283C8.02987 44.2019 5.90964 44.289 3.675 44.3898ZM11.3735 44.4469L22.3689 49.8957C18.4517 49.4724 14.4152 48.5751 10.3691 47.1749H10.9131C10.9131 46.7377 11.0435 45.9083 11.3134 44.7098C11.3328 44.6238 11.3528 44.5362 11.3735 44.4469ZM13.4846 44.0152L25.5776 50.0079L36.8211 44.0016C28.7277 43.7665 21.7012 43.7704 13.4846 44.0152ZM39.6858 42.774C42.512 42.8719 45.4886 42.997 48.7018 43.1492L42.5445 35.9767L38.351 37.8953C38.7017 39.1396 39.0258 40.3136 39.3187 41.3988C39.447 41.8739 39.5695 42.3329 39.6858 42.774ZM37.113 38.4618C37.4392 39.6215 37.7415 40.718 38.0161 41.7355C38.1079 42.0755 38.1965 42.4063 38.2817 42.7272C34.7761 42.6152 31.487 42.5464 28.241 42.5211L37.113 38.4618ZM37.9855 36.6072L41.6474 34.9317L35.2871 27.5226C35.3875 27.8482 35.487 28.1727 35.5858 28.4957C36.4583 31.3496 37.2694 34.0991 37.9855 36.6072ZM33.0751 24.9458C33.4921 26.2675 33.8999 27.5811 34.2951 28.8737C35.19 31.8008 36.0198 34.6171 36.7482 37.1733L25.5239 42.3088L13.4385 36.9946C14.2697 34.2622 15.2615 31.1804 16.3473 27.955C16.5048 27.487 16.6642 27.0161 16.8255 26.5428L25.6357 16.2798L33.0751 24.9458ZM32.0297 21.6784C31.1517 18.9723 30.2453 16.2758 29.3369 13.6972L26.6311 15.3897L32.0297 21.6784ZM25.6357 14.4476L22.0163 12.1836C23.2099 9.08108 24.3884 6.16453 25.487 3.63181C26.5788 6.19316 27.7286 9.19544 28.8822 12.4169L25.6357 14.4476ZM24.6403 15.3897L21.5335 13.4464C20.3444 16.5757 19.1489 19.8626 18.0105 23.1126L24.6403 15.3897ZM15.6287 25.8872C16.9415 22.0412 18.3679 18.0458 19.799 14.2355L8.87503 19.8109V33.7545L15.6287 25.8872ZM8.48292 36.261L2.59547 43.1192C5.35076 42.9919 7.93166 42.8847 10.3916 42.7973C10.6092 41.9456 10.8657 41.0013 11.1556 39.9809C11.3589 39.2657 11.5788 38.5121 11.8135 37.7255L8.48292 36.261ZM12.1987 36.4495L9.38373 35.2117L14.4944 29.2583C13.6505 31.8039 12.8736 34.2365 12.1987 36.4495ZM13.0544 38.2711C12.8407 38.9889 12.6401 39.678 12.4537 40.334C12.2073 41.2015 11.9862 42.0097 11.7936 42.7493C15.6434 42.6222 19.2123 42.5459 22.7169 42.52L13.0544 38.2711Z" fill="currentColor"></path></svg>