<svg width="30" height="30" viewBox="0 0 30 30" fill="none" xmlns="http://www.w3.org/2000/svg">
<path d="M30 15C30 6.72873 23.2713 -2.94122e-07 15 -6.55671e-07C6.72873 -1.01722e-06 -2.94122e-07 6.72873 -6.55671e-07 15C-1.01722e-06 23.2713 6.72873 30 15 30C23.2713 30 30 23.2713 30 15ZM16.6162 22.1337L10.3662 15.8838C10.25 15.7678 10.1578 15.6301 10.0949 15.4784C10.0321 15.3268 9.99981 15.1642 9.99996 15C9.99981 14.8358 10.0321 14.6732 10.0949 14.5216C10.1578 14.3699 10.25 14.2322 10.3662 14.1162L16.6162 7.86627C17.105 7.37754 17.895 7.37754 18.3837 7.86627C18.8725 8.355 18.8725 9.14502 18.3837 9.63375L13.0175 15L18.3837 20.3663C18.8725 20.855 18.8725 21.645 18.3837 22.1337C17.895 22.6225 17.105 22.6225 16.6162 22.1337Z" fill="#D86A37"/>
</svg>
