<svg width="132" height="172" viewBox="0 0 132 172" fill="none" xmlns="http://www.w3.org/2000/svg">
<path d="M128.182 76.248C130.356 76.2476 132.025 78.1771 131.711 80.3291L119.092 166.746C118.684 169.538 116.29 171.608 113.468 171.608H15.1738C12.2219 171.608 9.95765 168.989 10.3838 166.068L21.6592 88.8457C21.915 87.0943 23.4182 85.7959 25.1885 85.7959H88.4062L88.4824 85.7012L94.2334 78.5244C95.3856 77.0867 97.1287 76.25 98.9707 76.25L128.182 76.248Z" fill="#D3723F" stroke="#B9B9B9" stroke-width="0.503129"/>
<path d="M4.16797 93.4512H105.085C107.059 93.4514 108.725 94.9215 108.97 96.8809L117.771 167.264C118.059 169.57 116.261 171.607 113.936 171.607H13.7158C11.3105 171.607 9.28113 169.816 8.98242 167.43L0.282227 97.8525C-0.00993156 95.5157 1.81271 93.4512 4.16797 93.4512Z" fill="#EBAB6F" stroke="#B9B9B9" stroke-width="0.503129"/>
<path d="M44.9873 119.746C45.5487 119.581 46.104 120.141 45.9463 120.71C45.8132 121.19 45.5319 121.524 45.1963 121.982C44.8674 122.431 44.5186 122.859 44.167 123.304C44.0226 123.486 43.9083 123.633 43.793 123.784L43.6436 123.979L43.835 124.133L44.9395 125.021C45.2907 125.303 45.642 125.586 45.9932 125.868C46.1915 126.028 46.3862 126.183 46.5762 126.344V126.343C46.5773 126.344 46.5789 126.346 46.5811 126.348C46.5839 126.35 46.587 126.355 46.5908 126.358C46.5944 126.362 46.5993 126.366 46.6035 126.37L46.6406 126.408L46.6895 126.427C47.3205 126.673 47.7793 127.238 47.7607 127.927V127.934C47.7607 127.944 47.7603 127.955 47.7598 127.972V127.973C47.7506 128.318 47.6231 128.699 47.4033 129.009C47.1841 129.317 46.8867 129.537 46.5459 129.599C46.0449 129.689 45.5871 129.689 45.1719 129.497L44.9961 129.403C44.862 129.321 44.7357 129.222 44.6094 129.113L44.2207 128.767C43.8468 128.436 43.4886 128.09 43.1182 127.742C42.9298 127.565 42.741 127.388 42.5527 127.211C42.3646 127.034 42.1766 126.857 41.9883 126.681L41.7773 126.483L41.6104 126.719C41.359 127.072 41.1101 127.422 40.8555 127.77V127.771C40.5565 128.178 40.2663 128.592 39.9775 129.002C39.6636 129.447 39.3731 129.871 38.9814 130.133L38.8076 130.234C38.4321 130.423 37.9858 130.406 37.6396 130.224C37.3004 130.045 37.0647 129.715 37.0781 129.265C37.0934 128.75 37.296 128.243 37.5869 127.739C37.8799 127.232 38.2414 126.761 38.5674 126.292C38.913 125.795 39.2853 125.312 39.6689 124.833L39.8145 124.652L39.6455 124.493C39.3122 124.179 38.9873 123.863 38.6797 123.533C38.4837 123.323 38.2601 123.115 38.0439 122.91C37.8248 122.702 37.6095 122.496 37.418 122.279C37.0815 121.899 36.8351 121.511 36.7627 121.075L36.7432 120.886C36.7177 120.348 37.1921 119.952 37.7617 119.9C38.1767 119.863 38.6032 120.058 39.0508 120.369C39.2712 120.522 39.4861 120.696 39.6992 120.869C39.9092 121.04 40.1213 121.214 40.3232 121.355C40.7455 121.652 41.1548 121.97 41.5625 122.297L41.7412 122.44L41.9004 122.275C42.1134 122.055 42.3185 121.839 42.5312 121.627C42.8981 121.261 43.28 120.86 43.6963 120.509C44.1117 120.159 44.5407 119.877 44.9873 119.746Z" fill="#2E344B" stroke="#B9B9B9" stroke-width="0.503129"/>
<path d="M71.834 118.525C72.3953 118.361 72.9506 118.92 72.793 119.489C72.6599 119.97 72.3786 120.304 72.043 120.762C71.7141 121.21 71.3652 121.639 71.0137 122.083C70.8693 122.266 70.755 122.413 70.6396 122.563L70.4902 122.758L70.6816 122.912L71.7861 123.8C72.1374 124.083 72.4887 124.365 72.8398 124.647V124.646L73.4238 125.124L73.4873 125.188L73.5361 125.207C74.1674 125.454 74.6255 126.018 74.6074 126.705C74.607 126.718 74.6068 126.738 74.6064 126.75V126.751C74.5973 127.097 74.4698 127.478 74.25 127.787C74.0307 128.096 73.7334 128.315 73.3926 128.377C72.8917 128.467 72.4337 128.468 72.0186 128.276L71.8428 128.182C71.7086 128.099 71.5825 128 71.4561 127.892L71.0674 127.546C70.6933 127.215 70.3354 126.869 69.9648 126.521L68.834 125.46L68.624 125.263L68.457 125.497C68.2055 125.85 67.9569 126.201 67.7021 126.549L66.8242 127.781C66.4657 128.289 66.1372 128.77 65.6543 129.013V129.014C65.2787 129.203 64.8324 129.184 64.4863 129.002C64.1472 128.824 63.9114 128.494 63.9248 128.044C63.9401 127.529 64.1427 127.022 64.4336 126.519C64.7266 126.011 65.0881 125.54 65.4141 125.071C65.7597 124.575 66.132 124.091 66.5156 123.612L66.6611 123.432L66.4922 123.272C66.1589 122.959 65.834 122.642 65.5264 122.312C65.3303 122.102 65.1059 121.895 64.8896 121.689C64.6705 121.482 64.4562 121.275 64.2646 121.059C63.8802 120.625 63.6138 120.179 63.5898 119.665C63.5648 119.127 64.039 118.731 64.6084 118.68C65.0234 118.642 65.4499 118.837 65.8975 119.148C66.1178 119.302 66.3328 119.475 66.5459 119.648C66.7557 119.819 66.9672 119.993 67.1689 120.135C67.5913 120.431 68.0014 120.749 68.4092 121.076L68.5879 121.22L68.7471 121.055C68.96 120.835 69.1652 120.618 69.3779 120.406C69.7447 120.041 70.1258 119.639 70.542 119.288C70.9575 118.938 71.3872 118.657 71.834 118.525Z" fill="#2E344B" stroke="#B9B9B9" stroke-width="0.503129"/>
<path d="M54.3174 132.882C56.2917 132.695 58.3361 133.045 60.25 133.616C61.2669 133.919 62.2651 134.291 63.2207 134.745C64.1741 135.199 64.9834 135.997 64.9453 137.021C64.9348 137.3 64.8106 137.592 64.6104 137.807C64.412 138.019 64.1527 138.142 63.8711 138.122C63.4678 138.094 63.1211 138.02 62.7412 137.888L62.7363 137.886L62.499 137.799C62.4209 137.767 62.3436 137.732 62.2676 137.694V137.693L62.2598 137.69L62.2178 137.671L62.21 137.668L61.8232 137.503H61.8242L61.8135 137.499L61.7715 137.481C60.9784 137.16 60.1755 136.824 59.3574 136.536C57.8577 136.008 56.381 135.644 54.8154 135.631L54.501 135.633C53.7031 135.65 53.3598 135.699 52.5225 135.913C51.9951 136.048 51.5952 136.187 51.1807 136.374L50.7559 136.579C50.1789 136.873 49.6565 137.217 49.1875 137.673H49.1865C48.9522 137.901 48.6985 138.178 48.4795 138.396C48.2466 138.629 48.0123 138.84 47.7529 139.01C47.5578 139.137 47.3763 139.115 47.2236 139.013C47.0586 138.902 46.9323 138.697 46.9062 138.482C46.8208 137.774 47.219 136.968 47.6875 136.35C48.2238 135.642 48.8458 135.052 49.5684 134.526C50.9352 133.532 52.6247 133.042 54.3174 132.882Z" fill="#2E344B" stroke="#B9B9B9" stroke-width="0.503129"/>
<path d="M107.686 85.9111C107.835 85.8762 107.992 85.8791 108.116 85.9131V85.9141C108.255 85.9533 108.374 86.0217 108.477 86.123C108.578 86.2255 108.647 86.3445 108.686 86.4824L108.689 86.4961L108.694 86.5088C108.745 86.635 108.757 86.7802 108.743 86.9482C108.736 87.0342 108.724 87.1201 108.708 87.208L108.656 87.4795C108.617 87.6833 108.581 87.8632 108.521 88.041C108.43 88.3123 108.365 88.5495 108.256 88.7705C108.19 88.9043 108.119 89.0273 108.05 89.0947C108.015 89.1289 107.975 89.1602 107.93 89.1914L107.778 89.2871C107.71 89.3281 107.613 89.3485 107.514 89.3369C107.414 89.3252 107.333 89.2842 107.283 89.2295C107.172 89.1061 107.094 89.0107 107.046 88.8975C107.009 88.811 106.989 88.72 106.967 88.6045C106.943 88.4793 106.932 88.3532 106.927 88.2217L106.917 87.8037V87.6592C106.922 87.5142 106.939 87.367 106.957 87.2021C106.967 87.112 106.975 86.9873 106.981 86.9111C106.99 86.8199 107 86.7451 107.02 86.6826V86.6807C107.029 86.6477 107.039 86.637 107.072 86.5596L107.073 86.5586C107.092 86.5152 107.11 86.4711 107.128 86.4277C107.142 86.3937 107.156 86.3594 107.171 86.3252C107.228 86.25 107.286 86.1763 107.345 86.1035V86.1025C107.416 86.0146 107.535 85.9464 107.686 85.9111Z" fill="white" stroke="#B9B9B9" stroke-width="0.503129"/>
<path d="M114.231 86.1406C114.365 86.1228 114.469 86.1367 114.649 86.165C114.762 86.1831 114.878 86.2514 114.982 86.3633C115.086 86.4751 115.165 86.6164 115.205 86.7471C115.296 87.0435 115.222 87.3164 115.05 87.5977C114.871 87.8902 114.614 88.1483 114.369 88.4287V88.4297C114.09 88.7499 113.816 89.0522 113.532 89.376H113.531C113.235 89.7145 112.985 90.0321 112.681 90.3164H112.68C112.483 90.5003 112.322 90.6871 112.114 90.8525C111.914 91.0116 111.739 91.0895 111.576 91.0762C111.41 91.0626 111.3 90.9964 111.222 90.8633H111.223C111.148 90.7367 111.156 90.5969 111.194 90.3584C111.209 90.2647 111.236 90.1761 111.271 90.083L111.397 89.7793C111.519 89.4915 111.605 89.2387 111.744 89.0127L111.745 89.0137C111.861 88.8262 111.98 88.6394 112.101 88.4531C112.395 87.9986 112.705 87.562 113.037 87.1348C113.194 86.9322 113.312 86.755 113.463 86.6035L113.464 86.6025C113.53 86.5357 113.606 86.4749 113.696 86.4023C113.843 86.2844 113.957 86.2117 114.09 86.1709L114.231 86.1406Z" fill="white" stroke="#B9B9B9" stroke-width="0.503129"/>
<path d="M115.146 93.6484C115.324 93.6489 115.497 93.6718 115.662 93.7217C115.851 93.7788 115.995 93.889 116.179 94.0508C116.31 94.1665 116.363 94.3448 116.335 94.5342C116.31 94.7021 116.223 94.8543 116.101 94.9482L116.047 94.9844C115.894 95.0724 115.804 95.1329 115.699 95.1582C115.564 95.1909 115.414 95.2146 115.282 95.2217C115.112 95.2307 114.933 95.2294 114.761 95.2207C114.41 95.2034 114.06 95.2195 113.716 95.2607L113.708 95.2617C113.703 95.2623 113.698 95.2627 113.685 95.2637L113.666 95.2646C113.616 95.2697 113.599 95.2712 113.581 95.2705C113.491 95.2666 113.398 95.2532 113.291 95.2363C113.207 95.2231 113.154 95.2085 113.05 95.1895C112.95 95.171 112.833 95.0662 112.777 94.9375L112.758 94.8809C112.726 94.7657 112.742 94.6496 112.805 94.54L112.883 94.4326C112.992 94.3093 113.099 94.2125 113.233 94.1182L113.234 94.1172C113.342 94.0408 113.474 93.9981 113.653 93.9346C113.861 93.861 114.075 93.8006 114.291 93.752C114.578 93.6875 114.861 93.648 115.146 93.6484Z" fill="white" stroke="#B9B9B9" stroke-width="0.503129"/>
<path d="M99.502 5.91797L94.0557 64.5195H49.2578L53.8359 15.2588L65.8037 5.91797H99.502Z" fill="white" stroke="#B9B9B9" stroke-width="0.503129"/>
<path d="M64.6084 14.877H54.3262L65.4121 6.22266L64.6084 14.877Z" fill="#6779B7" stroke="#B9B9B9" stroke-width="0.503129"/>
<path d="M67.0908 26.1904C67.4017 26.0276 67.7785 26.0168 68.04 26.1738C68.7952 26.6274 69.3272 27.4179 69.9053 28.1768C70.4338 28.87 70.925 29.5877 71.4277 30.3115C71.9205 31.0204 72.4307 31.7621 72.9248 32.4727L73.0957 32.7178L73.3086 32.5088C74.2877 31.5447 75.2744 30.5887 76.2998 29.6934C77.0341 29.0526 77.7659 28.4218 78.5332 27.834C79.2151 27.3115 79.8622 26.7682 80.6211 26.5713L80.7744 26.5371C81.0793 26.4786 81.362 26.5718 81.5469 26.748C81.7279 26.921 81.8247 27.182 81.7471 27.4932C81.5227 28.3934 80.8457 29.1009 80.2012 29.8711C79.6415 30.5398 79.0418 31.1749 78.4404 31.8223H78.4395C77.3732 32.9727 76.2525 34.0793 75.1387 35.2002L74.9863 35.3535L75.1152 35.5264C75.9122 36.6026 76.7273 37.6677 77.5752 38.708C78.1159 39.3713 78.6652 40.0271 79.2236 40.6758C79.6066 41.121 80.0007 41.5349 80.2598 41.9951C80.5102 42.4401 80.6171 42.9014 80.4375 43.4365C80.274 43.9242 79.9021 44.3826 79.4434 44.46C79.0516 44.5258 78.7263 44.5264 78.4336 44.4521C78.1434 44.3785 77.8668 44.2265 77.5801 43.959C77.2573 43.6576 76.9988 43.2894 76.6943 42.9102H76.6934C76.1104 42.1847 75.5393 41.4485 74.9736 40.708C74.2669 39.7832 73.5827 38.84 72.9092 37.8877L72.7354 37.6416L72.5244 37.8564C71.9732 38.4161 71.416 38.976 70.8672 39.543C70.5345 39.8868 70.205 40.254 69.875 40.6172C69.5436 40.9819 69.2097 41.3441 68.8633 41.6865C68.1693 42.3723 67.4344 42.966 66.5879 43.3213C66.1617 43.4998 65.688 43.3381 65.3389 42.9736C64.9873 42.6066 64.8274 42.0992 64.9727 41.6855C65.2699 40.8386 65.8392 40.0718 66.5098 39.3418C66.8443 38.9777 67.2006 38.626 67.5566 38.2803C67.9108 37.9363 68.2671 37.5957 68.5938 37.2598C69.3104 36.523 70.0291 35.7886 70.751 35.0576L70.8926 34.9141L70.7832 34.7441C70.1705 33.7934 69.5704 32.8361 68.9912 31.8652H68.9902C68.5272 31.0898 67.9972 30.3072 67.541 29.4697C67.089 28.6398 66.7357 27.7978 66.6377 26.9521C66.5997 26.625 66.7857 26.3502 67.0908 26.1904Z" fill="#EF877B" stroke="#B9B9B9" stroke-width="0.503129"/>
<path d="M95.9609 0.251953L90.5146 58.8535H45.7168L50.2949 9.59277L62.2637 0.251953H95.9609Z" fill="white" stroke="#B9B9B9" stroke-width="0.503129"/>
<path d="M61.0684 9.21094H50.7852L61.8711 0.556641L61.0684 9.21094Z" stroke="#B9B9B9" stroke-width="0.503129"/>
<path d="M63.5518 20.5244C63.8627 20.3616 64.2395 20.3508 64.501 20.5078C65.2561 20.9614 65.7881 21.7519 66.3662 22.5107C66.8947 23.204 67.3859 23.9217 67.8887 24.6455C68.3813 25.3543 68.8917 26.0961 69.3857 26.8066L69.5566 27.0518L69.7695 26.8428C70.7487 25.8787 71.7354 24.9227 72.7607 24.0273C73.495 23.3866 74.2268 22.7558 74.9941 22.168C75.6762 21.6454 76.3232 21.1018 77.082 20.9053L77.2354 20.8711C77.5402 20.8124 77.823 20.9056 78.0078 21.082C78.1889 21.255 78.2856 21.5159 78.208 21.8271C77.9831 22.7274 77.3066 23.4349 76.6621 24.2051C76.1024 24.874 75.5024 25.5093 74.9014 26.1562C73.8351 27.3067 72.7135 28.4123 71.5996 29.5332L71.4473 29.6865L71.5762 29.8604C72.3731 30.9366 73.1883 32.0007 74.0361 33.041C74.5768 33.7043 75.1262 34.3601 75.6846 35.0088C76.0676 35.454 76.4616 35.8679 76.7207 36.3281C76.9398 36.7174 77.0494 37.1194 76.9531 37.5723L76.8984 37.7705C76.7349 38.2581 76.3629 38.7167 75.9043 38.7939C75.5126 38.8598 75.1872 38.8604 74.8945 38.7861C74.6044 38.7125 74.3277 38.5605 74.041 38.293C73.718 37.9914 73.46 37.6226 73.1553 37.2432H73.1543C72.5714 36.5178 72.0001 35.7824 71.4346 35.042C70.7277 34.1166 70.0437 33.173 69.3701 32.2207L69.1963 31.9746L68.9854 32.1895C68.4342 32.7496 67.8769 33.31 67.3281 33.877C66.9954 34.2208 66.666 34.588 66.3359 34.9512C66.0044 35.3159 65.6707 35.6781 65.3242 36.0205C64.6303 36.7063 63.8953 37.299 63.0488 37.6543C62.6226 37.8329 62.149 37.672 61.7998 37.3076C61.4482 36.9406 61.2885 36.4332 61.4336 36.0195C61.7309 35.1728 62.3 34.405 62.9707 33.6748C63.3051 33.3107 63.6617 32.96 64.0176 32.6143C64.1946 32.4423 64.3718 32.2707 64.5459 32.1006L65.0547 31.5928C65.7713 30.8566 66.4901 30.1225 67.2119 29.3916L67.3535 29.248L67.2441 29.0781C66.6314 28.1274 66.0313 27.17 65.4521 26.1992H65.4512C64.9881 25.4238 64.4581 24.6412 64.002 23.8037C63.55 22.9738 63.1966 22.1318 63.0986 21.2861C63.0607 20.9589 63.2467 20.6842 63.5518 20.5244Z" fill="#C85F64" stroke="#B9B9B9" stroke-width="0.503129"/>
<path d="M91.5713 60.4375L62.8818 59.3584H90.9736L90.9951 59.1299L93.8262 28.6602L91.5713 60.4375Z" fill="#2E344B" stroke="#B9B9B9" stroke-width="0.503129"/>
<path d="M76.796 89.7185C76.641 89.4191 76.5021 89.1127 76.3799 88.8008" stroke="#B9B9B9" stroke-width="0.503129" stroke-linecap="round" stroke-linejoin="round"/>
<path d="M75.8381 86.8834C75.1478 83.0652 76.5475 78.8479 79.5854 76.3912C83.1697 73.4931 88.1291 73.1923 92.7342 73.0071C97.4711 72.8164 102.236 72.6112 106.865 71.5843C109.972 70.895 113.069 69.7977 115.512 67.759C117.956 65.7203 119.664 62.6079 119.397 59.4367C119.132 56.265 116.539 53.2623 113.359 53.1159C110.18 52.9695 107.166 56.3188 108.126 59.3532C108.68 61.1041 110.331 62.371 112.121 62.781C113.91 63.1911 115.807 62.8394 117.502 62.134C121.158 60.613 124.067 57.3945 125.21 53.603C125.858 51.4551 125.958 49.1754 125.821 46.9365C125.656 44.2453 125.131 41.5148 123.76 39.1933C121.954 36.1373 118.809 34.0453 115.451 32.8932C112.723 31.9574 109.845 31.585 106.959 31.4004" stroke="#B9B9B9" stroke-width="0.503129" stroke-linecap="round" stroke-linejoin="round" stroke-dasharray="1.99 1.99"/>
<path d="M105.97 31.3446C105.635 31.3275 105.299 31.3124 104.964 31.2988" stroke="#B9B9B9" stroke-width="0.503129" stroke-linecap="round" stroke-linejoin="round"/>
<path d="M37.1876 89.0616C29.4561 91.2553 20.7434 90.082 14.1061 85.5508C7.46883 81.0196 3.1535 73.1099 3.3638 65.076C3.57411 57.042 8.49421 49.2048 15.8183 45.8967C18.598 44.6409 21.882 44.0402 24.6799 45.2552C27.4778 46.4703 29.375 49.966 28.0649 52.7207C26.7573 55.4698 22.7619 56.1852 20.199 54.5425C17.6361 52.8998 16.5292 49.563 16.8829 46.5397C17.2366 43.5159 18.8224 40.7704 20.675 38.3548C26.3004 31.0187 34.7822 25.9331 43.9039 24.4277" stroke="#B9B9B9" stroke-width="0.503129" stroke-miterlimit="10" stroke-linecap="round" stroke-linejoin="round" stroke-dasharray="2.01 2.01"/>
</svg>
